<?xml version="1.0" encoding="UTF-8" standalone="no"?>
<svg
   version="1.2"
   width="18.640118mm"
   height="16.847836mm"
   viewBox="-0.4431 0.1443 10.60874 9.5879019"
   id="svg16"
   xmlns:xlink="http://www.w3.org/1999/xlink"
   xmlns="http://www.w3.org/2000/svg"
   xmlns:svg="http://www.w3.org/2000/svg">
  <defs
     id="defs16" />
  <style
     type="text/css"
     id="style1"><![CDATA[
tspan { white-space: pre; }
]]></style>
  <g
     transform="translate(-0.3931,3.5294435)"
     id="g1">
    <line
       stroke-linejoin="round"
       stroke-linecap="round"
       stroke-width="0.1"
       stroke="currentColor"
       x1="0"
       y1="2"
       x2="5.6691999"
       y2="2"
       id="line1" />
  </g>
  <g
     transform="translate(-0.3931,3.5294435)"
     id="g2">
    <line
       stroke-linejoin="round"
       stroke-linecap="round"
       stroke-width="0.1"
       stroke="currentColor"
       x1="0"
       y1="1"
       x2="5.6691999"
       y2="1"
       id="line2" />
  </g>
  <g
     transform="translate(-0.3931,3.5294435)"
     id="g3">
    <line
       stroke-linejoin="round"
       stroke-linecap="round"
       stroke-width="0.1"
       stroke="currentColor"
       x1="0"
       y1="0"
       x2="5.6691999"
       y2="0"
       id="line3" />
  </g>
  <g
     transform="translate(-0.3931,3.5294435)"
     id="g4">
    <line
       stroke-linejoin="round"
       stroke-linecap="round"
       stroke-width="0.1"
       stroke="currentColor"
       x1="0"
       y1="-1"
       x2="5.6691999"
       y2="-1"
       id="line4" />
  </g>
  <g
     transform="translate(-0.3931,3.5294435)"
     id="g5">
    <line
       stroke-linejoin="round"
       stroke-linecap="round"
       stroke-width="0.1"
       stroke="currentColor"
       x1="0"
       y1="-2"
       x2="5.6691999"
       y2="-2"
       id="line5" />
  </g>
  <g
     transform="translate(0.1191,6.5294435)"
     id="g6">
    <rect
       x="-0.28670001"
       y="-0.1"
       width="1.6476001"
       height="0.2"
       ry="0.1"
       fill="currentColor"
       id="rect5" />
  </g>
  <g
     transform="translate(0.1191,7.5294435)"
     id="g7">
    <rect
       x="-0.28670001"
       y="-0.1"
       width="1.6476001"
       height="0.2"
       ry="0.1"
       fill="currentColor"
       id="rect6" />
  </g>
  <a
     style="color:inherit"
     xlink:href="textedit://C:/Users/jwloy/OneDrive/Documents/GitHub/string_quartet_no1-composer/lilypond_code/Cres-Single-treble-A3-f-fff.ly:99:4:5"
     id="a8"
     transform="translate(-0.45,-0.67973547)">
    <g
       transform="translate(7.6218,10.0122)"
       id="g8">
      <text
         font-family="'Crimson Pro Light'"
         font-style="italic"
         font-size="1.0998px"
         text-anchor="start"
         fill="currentColor"
         id="text7"><tspan
           id="tspan7">secco</tspan></text>
    </g>
  </a>
  <a
     style="color:inherit"
     xlink:href="textedit://C:/Users/jwloy/OneDrive/Documents/GitHub/string_quartet_no1-composer/lilypond_code/Cres-Single-treble-A3-f-fff.ly:95:4:5"
     id="a11"
     transform="translate(-0.7511672,-0.98470651)">
    <g
       transform="translate(6.2731,10.222)"
       id="g11">
      <g
         id="g10">
        <path
           transform="scale(0.0015,-0.0015)"
           d="M 250,221 203,68 C 173,-31 82,-187 -15,-187 c -48,0 -87,39 -87,88 0,39 17,77 52,77 24,0 44,-19 44,-43 0,-30 -38,-25 -38,-55 0,-10 11,-11 23,-11 h 6 c 42,0 62,45 73,89 l 66,263 H 87 c -16,0 -29,13 -29,29 0,16 13,29 29,29 h 53 c 34,92 119,181 210,181 48,0 87,-40 87,-89 0,-39 -17,-77 -52,-77 -24,0 -44,20 -44,44 0,30 38,25 38,55 0,10 -10,10 -22,10 h -7 c -52,0 -68,-67 -83,-124 h 42 c 16,0 29,-13 29,-29 0,-16 -13,-29 -29,-29 z"
           fill="currentColor"
           id="path8" />
        <path
           transform="matrix(0.0015,0,0,-0.0015,0.4097,0)"
           d="M 250,221 203,68 C 173,-31 82,-187 -15,-187 c -48,0 -87,39 -87,88 0,39 17,77 52,77 24,0 44,-19 44,-43 0,-30 -38,-25 -38,-55 0,-10 11,-11 23,-11 h 6 c 42,0 62,45 73,89 l 66,263 H 87 c -16,0 -29,13 -29,29 0,16 13,29 29,29 h 53 c 34,92 119,181 210,181 48,0 87,-40 87,-89 0,-39 -17,-77 -52,-77 -24,0 -44,20 -44,44 0,30 38,25 38,55 0,10 -10,10 -22,10 h -7 c -52,0 -68,-67 -83,-124 h 42 c 16,0 29,-13 29,-29 0,-16 -13,-29 -29,-29 z"
           fill="currentColor"
           id="path9" />
        <path
           transform="matrix(0.0015,0,0,-0.0015,0.8194,0)"
           d="M 250,221 203,68 C 173,-31 82,-187 -15,-187 c -48,0 -87,39 -87,88 0,39 17,77 52,77 24,0 44,-19 44,-43 0,-30 -38,-25 -38,-55 0,-10 11,-11 23,-11 h 6 c 42,0 62,45 73,89 l 66,263 H 87 c -16,0 -29,13 -29,29 0,16 13,29 29,29 h 53 c 34,92 119,181 210,181 48,0 87,-40 87,-89 0,-39 -17,-77 -52,-77 -24,0 -44,20 -44,44 0,30 38,25 38,55 0,10 -10,10 -22,10 h -7 c -52,0 -68,-67 -83,-124 h 42 c 16,0 29,-13 29,-29 0,-16 -13,-29 -29,-29 z"
           fill="currentColor"
           id="path10" />
      </g>
    </g>
  </a>
  <a
     style="color:inherit"
     xlink:href="textedit://C:/Users/jwloy/OneDrive/Documents/GitHub/string_quartet_no1-composer/lilypond_code/Cres-Single-treble-A3-f-fff.ly:79:4:5"
     id="a13"
     transform="translate(-0.45,-0.76465651)">
    <g
       transform="translate(1.5451,9.7972)"
       id="g12">
      <line
         stroke-linejoin="round"
         stroke-linecap="round"
         stroke-width="0.1"
         stroke="currentColor"
         x1="0"
         y1="0"
         x2="4.2280002"
         y2="0.64999998"
         id="line11" />
    </g>
    <g
       transform="translate(1.5451,9.7972)"
       id="g13">
      <line
         stroke-linejoin="round"
         stroke-linecap="round"
         stroke-width="0.1"
         stroke="currentColor"
         x1="0"
         y1="0"
         x2="4.2280002"
         y2="-0.64999998"
         id="line12" />
    </g>
  </a>
  <a
     style="color:inherit"
     xlink:href="textedit://C:/Users/jwloy/OneDrive/Documents/GitHub/string_quartet_no1-composer/lilypond_code/Cres-Single-treble-A3-f-fff.ly:72:4:5"
     id="a14"
     transform="translate(-0.45,-0.76465651)">
    <g
       transform="translate(0.5569,8.2941)"
       id="g14">
      <path
         transform="scale(0.0032,-0.0032)"
         d="m 310,63 c 0,23 -19,40 -40,40 -4,0 -8,-1 -12,-2 C 228,93 183,63 147,40 111,17 66,-12 46,-36 39,-44 36,-53 36,-63 c 0,-23 19,-40 40,-40 4,0 8,1 12,2 30,8 75,38 111,61 36,23 81,52 101,76 7,8 10,17 10,27 z m -54,75 c 50,0 90,-22 90,-77 0,-18 -5,-37 -10,-55 -11,-38 -30,-74 -63,-96 -53,-35 -111,-48 -183,-48 -50,0 -90,22 -90,77 0,18 5,37 10,55 11,38 30,74 63,96 53,36 111,48 183,48 z"
         fill="currentColor"
         id="path13" />
    </g>
  </a>
  <a
     style="color:inherit"
     xlink:href="textedit://C:/Users/jwloy/OneDrive/Documents/GitHub/string_quartet_no1-composer/lilypond_code/Cres-Single-treble-A3-f-fff.ly:84:4:5"
     id="a15"
     transform="translate(-0.45,-0.76465651)">
    <g
       transform="translate(0.5569,1.7441)"
       id="g15">
      <text
         font-family="'Crimson Pro Light'"
         font-style="italic"
         font-size="1.0998px"
         text-anchor="start"
         fill="currentColor"
         id="text14"><tspan
           id="tspan14">Non-Vib</tspan></text>
    </g>
  </a>
  <a
     style="color:inherit"
     xlink:href="textedit://C:/Users/jwloy/OneDrive/Documents/GitHub/string_quartet_no1-composer/lilypond_code/Cres-Single-treble-A3-f-fff.ly:75:4:5"
     id="a16"
     transform="translate(-0.45,-0.98470651)">
    <g
       transform="translate(0.8671,10.222)"
       id="g16">
      <path
         transform="scale(0.0015,-0.0015)"
         d="M 250,221 203,68 C 173,-31 82,-187 -15,-187 c -48,0 -87,39 -87,88 0,39 17,77 52,77 24,0 44,-19 44,-43 0,-30 -38,-25 -38,-55 0,-10 11,-11 23,-11 h 6 c 42,0 62,45 73,89 l 66,263 H 87 c -16,0 -29,13 -29,29 0,16 13,29 29,29 h 53 c 34,92 119,181 210,181 48,0 87,-40 87,-89 0,-39 -17,-77 -52,-77 -24,0 -44,20 -44,44 0,30 38,25 38,55 0,10 -10,10 -22,10 h -7 c -52,0 -68,-67 -83,-124 h 42 c 16,0 29,-13 29,-29 0,-16 -13,-29 -29,-29 z"
         fill="currentColor"
         id="path15" />
    </g>
  </a>
</svg>
