<?xml version="1.0" encoding="UTF-8" standalone="no"?>
<svg
   version="1.2"
   width="17.999178mm"
   height="19.844954mm"
   viewBox="0 0 10.242485 11.29289"
   id="svg21"
   xmlns:xlink="http://www.w3.org/1999/xlink"
   xmlns="http://www.w3.org/2000/svg"
   xmlns:svg="http://www.w3.org/2000/svg">
  <defs
     id="defs21" />
  <style
     type="text/css"
     id="style1"><![CDATA[
tspan { white-space: pre; }
]]></style>
  <g
     transform="translate(0.04997405,7.1428902)"
     id="g1">
    <line
       stroke-linejoin="round"
       stroke-linecap="round"
       stroke-width="0.1"
       stroke="currentColor"
       x1="0"
       y1="2"
       x2="8.2202997"
       y2="2"
       id="line1" />
  </g>
  <g
     transform="translate(0.04997405,7.1428902)"
     id="g2">
    <line
       stroke-linejoin="round"
       stroke-linecap="round"
       stroke-width="0.1"
       stroke="currentColor"
       x1="0"
       y1="1"
       x2="8.2202997"
       y2="1"
       id="line2" />
  </g>
  <g
     transform="translate(0.04997405,7.1428902)"
     id="g3">
    <line
       stroke-linejoin="round"
       stroke-linecap="round"
       stroke-width="0.1"
       stroke="currentColor"
       x1="0"
       y1="0"
       x2="8.2202997"
       y2="0"
       id="line3" />
  </g>
  <g
     transform="translate(0.04997405,7.1428902)"
     id="g4">
    <line
       stroke-linejoin="round"
       stroke-linecap="round"
       stroke-width="0.1"
       stroke="currentColor"
       x1="0"
       y1="-1"
       x2="8.2202997"
       y2="-1"
       id="line4" />
  </g>
  <g
     transform="translate(0.04997405,7.1428902)"
     id="g5">
    <line
       stroke-linejoin="round"
       stroke-linecap="round"
       stroke-width="0.1"
       stroke="currentColor"
       x1="0"
       y1="-2"
       x2="8.2202997"
       y2="-2"
       id="line5" />
  </g>
  <g
     transform="translate(0.56217405,2.1428902)"
     id="g6">
    <rect
       x="5.6283998"
       y="-0.1"
       width="1.5487"
       height="0.2"
       ry="0.1"
       fill="currentColor"
       id="rect5" />
  </g>
  <g
     transform="translate(0.56217405,3.1428902)"
     id="g7">
    <rect
       x="5.6283998"
       y="-0.1"
       width="1.5487"
       height="0.2"
       ry="0.1"
       fill="currentColor"
       id="rect6" />
  </g>
  <g
     transform="translate(0.56217405,4.1428902)"
     id="g8">
    <rect
       x="5.6283998"
       y="-0.1"
       width="1.5487"
       height="0.2"
       ry="0.1"
       fill="currentColor"
       id="rect7" />
  </g>
  <g
     transform="translate(0.56217405,2.1428902)"
     id="g9">
    <rect
       x="0.0297"
       y="-0.1"
       width="1.5487"
       height="0.2"
       ry="0.1"
       fill="currentColor"
       id="rect8" />
  </g>
  <g
     transform="translate(0.56217405,3.1428902)"
     id="g10">
    <rect
       x="0.0297"
       y="-0.1"
       width="1.5487"
       height="0.2"
       ry="0.1"
       fill="currentColor"
       id="rect9" />
  </g>
  <g
     transform="translate(0.56217405,4.1428902)"
     id="g11">
    <rect
       x="0.0297"
       y="-0.1"
       width="1.5487"
       height="0.2"
       ry="0.1"
       fill="currentColor"
       id="rect10" />
  </g>
  <a
     style="color:inherit"
     xlink:href="textedit://C:/Users/jwloy/OneDrive/Documents/GitHub/string_quartet_no1-composer/lilypond_code/Crescendo_Gliss-Violin-E6-F6.ly:69:4:5"
     id="a12"
     transform="translate(-0.00692595,-0.50850977)">
    <g
       transform="translate(6.4556,2.1514)"
       id="g12">
      <path
         transform="scale(0.0032,-0.0032)"
         d="m 212,138 c 59,0 113,-31 113,-95 0,-71 -52,-120 -99,-148 -34,-21 -73,-33 -113,-33 -59,0 -113,31 -113,95 0,71 53,120 100,148 34,21 72,33 112,33 z"
         fill="currentColor"
         id="path11" />
    </g>
  </a>
  <a
     style="color:inherit"
     xlink:href="textedit://C:/Users/jwloy/OneDrive/Documents/GitHub/string_quartet_no1-composer/lilypond_code/Crescendo_Gliss-Violin-E6-F6.ly:57:9:10"
     id="a13"
     transform="translate(-0.00692595,-0.50850977)">
    <g
       transform="translate(0.5691,7.6514)"
       id="g13">
      <line
         stroke-linejoin="round"
         stroke-linecap="round"
         stroke-width="0.1"
         stroke="currentColor"
         x1="1.8174"
         y1="-5.0544"
         x2="5.3895001"
         y2="-5.4456"
         id="line12" />
    </g>
  </a>
  <a
     style="color:inherit"
     xlink:href="textedit://C:/Users/jwloy/OneDrive/Documents/GitHub/string_quartet_no1-composer/lilypond_code/Crescendo_Gliss-Violin-E6-F6.ly:70:6:7"
     id="a14"
     transform="translate(-0.00692595,-0.50850977)">
    <g
       transform="translate(7.2556,11.2786)"
       id="g14">
      <text
         font-family="'Crimson Pro Light'"
         font-style="italic"
         font-size="1.0998px"
         text-anchor="start"
         fill="currentColor"
         id="text13"><tspan
           id="tspan13">secco</tspan></text>
    </g>
  </a>
  <a
     style="color:inherit"
     xlink:href="textedit://C:/Users/jwloy/OneDrive/Documents/GitHub/string_quartet_no1-composer/lilypond_code/Crescendo_Gliss-Violin-E6-F6.ly:60:4:5"
     id="a16"
     transform="translate(-0.00692595,-0.50850977)">
    <g
       transform="translate(2.3926,11.0514)"
       id="g15">
      <line
         stroke-linejoin="round"
         stroke-linecap="round"
         stroke-width="0.1"
         stroke="currentColor"
         x1="0"
         y1="0"
         x2="4.5292001"
         y2="0.69999999"
         id="line14" />
    </g>
    <g
       transform="translate(2.3926,11.0514)"
       id="g16">
      <line
         stroke-linejoin="round"
         stroke-linecap="round"
         stroke-width="0.1"
         stroke="currentColor"
         x1="0"
         y1="0"
         x2="4.5292001"
         y2="-0.69999999"
         id="line15" />
    </g>
  </a>
  <a
     style="color:inherit"
     xlink:href="textedit://C:/Users/jwloy/OneDrive/Documents/GitHub/string_quartet_no1-composer/lilypond_code/Crescendo_Gliss-Violin-E6-F6.ly:57:4:5"
     id="a17"
     transform="translate(-0.00692595,-0.50850977)">
    <g
       transform="translate(0.8569,2.6514)"
       id="g17">
      <path
         transform="scale(0.0032,-0.0032)"
         d="m 212,138 c 59,0 113,-31 113,-95 0,-71 -52,-120 -99,-148 -34,-21 -73,-33 -113,-33 -59,0 -113,31 -113,95 0,71 53,120 100,148 34,21 72,33 112,33 z"
         fill="currentColor"
         id="path16" />
    </g>
  </a>
  <a
     style="color:inherit"
     xlink:href="textedit://C:/Users/jwloy/OneDrive/Documents/GitHub/string_quartet_no1-composer/lilypond_code/Crescendo_Gliss-Violin-E6-F6.ly:63:4:5"
     id="a18"
     transform="translate(-0.00692595,-0.50850977)">
    <g
       transform="translate(0.8569,1.3441)"
       id="g18">
      <text
         font-family="'Crimson Pro Light'"
         font-style="italic"
         font-size="1.0998px"
         text-anchor="start"
         fill="currentColor"
         id="text17"><tspan
           id="tspan17">Non-Vib</tspan></text>
    </g>
  </a>
  <a
     style="color:inherit"
     xlink:href="textedit://C:/Users/jwloy/OneDrive/Documents/GitHub/string_quartet_no1-composer/lilypond_code/Crescendo_Gliss-Violin-E6-F6.ly:58:4:5"
     id="a21"
     transform="translate(-0.00692595,-0.50850977)">
    <g
       transform="translate(0.5537,11.1761)"
       id="g21">
      <g
         id="g20">
        <path
           transform="scale(0.0015,-0.0015)"
           d="M 233,243 C 176,243 129,131 129,65 c 0,-22 9,-38 31,-38 17,0 35,12 47,28 24,33 51,118 51,155 0,18 -7,33 -25,33 z M 70,243 C 18,243 26,120 -31,120 c -12,0 -21,6 -21,18 0,4 1,8 3,13 30,68 75,141 136,141 33,0 53,-23 60,-52 29,31 67,52 103,52 69,0 107,-49 107,-114 0,-94 -82,-190 -160,-190 -27,0 -52,5 -73,17 -10,6 -24,5 -27,-4 L 80,-50 c -3,-8 -4,-16 -4,-23 0,-24 10,-29 32,-31 13,-1 19,-11 19,-21 0,-10 -7,-21 -20,-21 -35,0 -72,5 -108,5 -37,0 -74,-5 -109,-5 -13,0 -20,11 -20,21 0,23 29,22 52,23 25,2 49,15 57,39 l 92,272 c 3,9 7,18 7,25 0,5 -2,9 -8,9 z"
           fill="currentColor"
           id="path18" />
        <path
           transform="matrix(0.0015,0,0,-0.0015,0.5463,0)"
           d="M 233,243 C 176,243 129,131 129,65 c 0,-22 9,-38 31,-38 17,0 35,12 47,28 24,33 51,118 51,155 0,18 -7,33 -25,33 z M 70,243 C 18,243 26,120 -31,120 c -12,0 -21,6 -21,18 0,4 1,8 3,13 30,68 75,141 136,141 33,0 53,-23 60,-52 29,31 67,52 103,52 69,0 107,-49 107,-114 0,-94 -82,-190 -160,-190 -27,0 -52,5 -73,17 -10,6 -24,5 -27,-4 L 80,-50 c -3,-8 -4,-16 -4,-23 0,-24 10,-29 32,-31 13,-1 19,-11 19,-21 0,-10 -7,-21 -20,-21 -35,0 -72,5 -108,5 -37,0 -74,-5 -109,-5 -13,0 -20,11 -20,21 0,23 29,22 52,23 25,2 49,15 57,39 l 92,272 c 3,9 7,18 7,25 0,5 -2,9 -8,9 z"
           fill="currentColor"
           id="path19" />
        <path
           transform="matrix(0.0015,0,0,-0.0015,1.0926,0)"
           d="M 233,243 C 176,243 129,131 129,65 c 0,-22 9,-38 31,-38 17,0 35,12 47,28 24,33 51,118 51,155 0,18 -7,33 -25,33 z M 70,243 C 18,243 26,120 -31,120 c -12,0 -21,6 -21,18 0,4 1,8 3,13 30,68 75,141 136,141 33,0 53,-23 60,-52 29,31 67,52 103,52 69,0 107,-49 107,-114 0,-94 -82,-190 -160,-190 -27,0 -52,5 -73,17 -10,6 -24,5 -27,-4 L 80,-50 c -3,-8 -4,-16 -4,-23 0,-24 10,-29 32,-31 13,-1 19,-11 19,-21 0,-10 -7,-21 -20,-21 -35,0 -72,5 -108,5 -37,0 -74,-5 -109,-5 -13,0 -20,11 -20,21 0,23 29,22 52,23 25,2 49,15 57,39 l 92,272 c 3,9 7,18 7,25 0,5 -2,9 -8,9 z"
           fill="currentColor"
           id="path20" />
      </g>
    </g>
  </a>
</svg>
