<svg xmlns="http://www.w3.org/2000/svg" xmlns:xlink="http://www.w3.org/1999/xlink" version="1.2" width="11.13mm" height="15.06mm" viewBox="-0.4218 -4.8872 6.3318 8.5672">
<style type="text/css">
<![CDATA[
tspan { white-space: pre; }
]]>
</style>
<g id="staff-lines">
<line stroke-linejoin="round" stroke-linecap="round" stroke-width="0.1000" stroke="currentColor" x1="0" y1="-2.0000" x2="5.7600" y2="-2.0000"/>
<line stroke-linejoin="round" stroke-linecap="round" stroke-width="0.1000" stroke="currentColor" x1="0" y1="-1.0000" x2="5.7600" y2="-1.0000"/>
<line stroke-linejoin="round" stroke-linecap="round" stroke-width="0.1000" stroke="currentColor" x1="0" y1="0.0000" x2="5.7600" y2="0.0000"/>
<line stroke-linejoin="round" stroke-linecap="round" stroke-width="0.1000" stroke="currentColor" x1="0" y1="1.0000" x2="5.7600" y2="1.0000"/>
<line stroke-linejoin="round" stroke-linecap="round" stroke-width="0.1000" stroke="currentColor" x1="0" y1="2.0000" x2="5.7600" y2="2.0000"/>
</g>
<g transform="translate(1.1000, 1.0000)">
<path transform="scale(0.0027, -0.0027)" d="M308 62c0 23 -20 39 -40 39c-4 0 -7 0 -11 -1c-29 -8 -74 -38 -109 -61s-79 -52 -99 -75c-6 -8 -10 -16 -10 -26c0 -23 20 -39 40 -39c4 0 7 0 11 1c29 8 74 38 109 61s79 52 99 75c6 8 10 16 10 26zM0 -59c0 142 114 198 251 198c53 0 96 -22 96 -80c0 -142 -115 -198 -252 -198c-53 0 -95 22 -95 80z" fill="currentColor"/>
</g>
<g transform="translate(0.6750, 3.0395)">
<g>
<path transform="scale(0.0015, -0.0015)" d="M233 243c-57 0 -104 -112 -104 -178c0 -22 9 -38 31 -38c17 0 35 12 47 28c24 33 51 118 51 155c0 18 -7 33 -25 33zM70 243c-52 0 -44 -123 -101 -123c-12 0 -21 6 -21 18c0 4 1 8 3 13c30 68 75 141 136 141c33 0 53 -23 60 -52c29 31 67 52 103 52c69 0 107 -49 107 -114c0 -94 -82 -190 -160 -190c-27 0 -52 5 -73 17c-10 6 -24 5 -27 -4l-17 -51c-3 -8 -4 -16 -4 -23c0 -24 10 -29 32 -31c13 -1 19 -11 19 -21s-7 -21 -20 -21c-35 0 -72 5 -108 5c-37 0 -74 -5 -109 -5c-13 0 -20 11 -20 21c0 23 29 22 52 23c25 2 49 15 57 39l92 272c3 9 7 18 7 25c0 5 -2 9 -8 9z" fill="currentColor"/>
</g>
</g>
<g transform="translate(1.3305, 2.9300)">
<line stroke-linejoin="round" stroke-linecap="round" stroke-width="0.1000" stroke="currentColor" x1="0.0000" y1="0.0000" x2="2.6600" y2="0.5500"/>
</g>
<g transform="translate(1.3305, 2.9300)">
<line stroke-linejoin="round" stroke-linecap="round" stroke-width="0.1000" stroke="currentColor" x1="0.0000" y1="-0.0000" x2="2.6600" y2="-0.5500"/>
</g>
<g transform="translate(4.2635, 3.1348)">
<g>
<path transform="scale(0.0015, -0.0015)" d="M250 221l-47 -153c-30 -99 -121 -255 -218 -255c-48 0 -87 39 -87 88c0 39 17 77 52 77c24 0 44 -19 44 -43c0 -30 -38 -25 -38 -55c0 -10 11 -11 23 -11h6c42 0 62 45 73 89l66 263h-37c-16 0 -29 13 -29 29s13 29 29 29h53c34 92 119 181 210 181c48 0 87 -40 87 -89c0 -39 -17 -77 -52 -77c-24 0 -44 20 -44 44c0 30 38 25 38 55c0 10 -10 10 -22 10h-7c-52 0 -68 -67 -83 -124h42c16 0 29 -13 29 -29s-13 -29 -29 -29h-59z" fill="currentColor"/>
</g>
</g>
<g transform="translate(0, -4.7372)" id="feathered-beam-block">
<rect x="0.0000" y="0" width="0.0786" height="2.1327" ry="0.0242" fill="currentColor"/>
<rect x="1.9018" y="0" width="0.0786" height="2.1327" ry="0.0242" fill="currentColor"/>
<rect x="3.2465" y="0" width="0.0786" height="2.1327" ry="0.0242" fill="currentColor"/>
<rect x="4.1974" y="0" width="0.0786" height="2.1327" ry="0.0242" fill="currentColor"/>
<rect x="4.8697" y="0" width="0.0786" height="2.1327" ry="0.0242" fill="currentColor"/>
<rect x="5.3452" y="0" width="0.0786" height="2.1327" ry="0.0242" fill="currentColor"/>
<rect x="5.6814" y="0" width="0.0786" height="2.1327" ry="0.0242" fill="currentColor"/>
<g transform="translate(-0.2718, 2.1327)"><path transform="scale(0.001088,-0.001088)" d="M199 142c66 0 123 -38 123 -108c0 -70 -48 -117 -94 -145c-32 -19 -68 -31 -105 -31c-66 0 -123 38 -123 108c0 70 48 117 94 145c32 19 68 31 105 31z" fill="currentColor"/></g>
<g transform="translate(1.6300, 2.1327)"><path transform="scale(0.001088,-0.001088)" d="M199 142c66 0 123 -38 123 -108c0 -70 -48 -117 -94 -145c-32 -19 -68 -31 -105 -31c-66 0 -123 38 -123 108c0 70 48 117 94 145c32 19 68 31 105 31z" fill="currentColor"/></g>
<g transform="translate(2.9747, 2.1327)"><path transform="scale(0.001088,-0.001088)" d="M199 142c66 0 123 -38 123 -108c0 -70 -48 -117 -94 -145c-32 -19 -68 -31 -105 -31c-66 0 -123 38 -123 108c0 70 48 117 94 145c32 19 68 31 105 31z" fill="currentColor"/></g>
<g transform="translate(3.9256, 2.1327)"><path transform="scale(0.001088,-0.001088)" d="M199 142c66 0 123 -38 123 -108c0 -70 -48 -117 -94 -145c-32 -19 -68 -31 -105 -31c-66 0 -123 38 -123 108c0 70 48 117 94 145c32 19 68 31 105 31z" fill="currentColor"/></g>
<g transform="translate(4.5980, 2.1327)"><path transform="scale(0.001088,-0.001088)" d="M199 142c66 0 123 -38 123 -108c0 -70 -48 -117 -94 -145c-32 -19 -68 -31 -105 -31c-66 0 -123 38 -123 108c0 70 48 117 94 145c32 19 68 31 105 31z" fill="currentColor"/></g>
<g transform="translate(5.0734, 2.1327)"><path transform="scale(0.001088,-0.001088)" d="M199 142c66 0 123 -38 123 -108c0 -70 -48 -117 -94 -145c-32 -19 -68 -31 -105 -31c-66 0 -123 38 -123 108c0 70 48 117 94 145c32 19 68 31 105 31z" fill="currentColor"/></g>
<g transform="translate(5.4097, 2.1327)"><path transform="scale(0.001088,-0.001088)" d="M199 142c66 0 123 -38 123 -108c0 -70 -48 -117 -94 -145c-32 -19 -68 -31 -105 -31c-66 0 -123 38 -123 108c0 70 48 117 94 145c32 19 68 31 105 31z" fill="currentColor"/></g>
<polygon points="0.0000,0.0000 5.7600,0.0000 5.7600,0.1511 0.0000,0.1511" fill="currentColor"/>
<polygon points="0.0000,0.0000 5.7600,0.5158 5.7600,0.6669 0.0000,0.1511" fill="currentColor"/>
<polygon points="0.0000,0.0000 5.7600,1.0316 5.7600,1.1828 0.0000,0.1511" fill="currentColor"/>
</g>
<g id="debug-overlay">
<rect x="1.1000" y="0.6247" width="0.9369" height="0.7506" fill="none" stroke="#0078FF" stroke-opacity="0.6" stroke-width="0.03"/>
<text x="1.1000" y="0.5747" font-size="0.18" fill="#0078FF" fill-opacity="0.8">notehead</text>
<rect x="0.4800" y="2.6015" width="0.7305" height="0.6570" fill="none" stroke="#FF0000" stroke-opacity="0.6" stroke-width="0.03"/>
<text x="0.4800" y="2.5515" font-size="0.18" fill="#FF0000" fill-opacity="0.8">dyn1</text>
<rect x="1.2805" y="2.3300" width="2.7600" height="1.2000" fill="none" stroke="#00C800" stroke-opacity="0.6" stroke-width="0.03"/>
<text x="1.2805" y="2.2800" font-size="0.18" fill="#00C800" fill-opacity="0.8">hairpin</text>
<rect x="4.1105" y="2.4448" width="0.8085" height="0.9705" fill="none" stroke="#FF0000" stroke-opacity="0.6" stroke-width="0.03"/>
<text x="4.1105" y="2.3948" font-size="0.18" fill="#FF0000" fill-opacity="0.8">dyn2</text>
<rect x="-0.2718" y="-4.7372" width="6.0318" height="2.2872" fill="none" stroke="#FF00FF" stroke-opacity="0.6" stroke-width="0.03"/>
<text x="-0.2718" y="-4.7872" font-size="0.18" fill="#FF00FF" fill-opacity="0.8">feathered</text>
<line x1="-0.5" y1="2.9300" x2="6.2600" y2="2.9300" stroke="red" stroke-width="0.02" stroke-dasharray="0.1,0.1" opacity="0.6"/>
</g>
</svg>
