<svg xmlns="http://www.w3.org/2000/svg" xmlns:xlink="http://www.w3.org/1999/xlink" version="1.2" width="11.00mm" height="20.00mm" viewBox="0.0000 -0.0000 6.2596 11.3811">
<style type="text/css">
<![CDATA[
tspan { white-space: pre; }
]]>
</style>
<g transform="translate(0.0569, 4.5000)">
<line stroke-linejoin="round" stroke-linecap="round" stroke-width="0.1000" stroke="currentColor" x1="0" y1="2.0000" x2="2.2677" y2="2.0000"/>
</g>
<g transform="translate(0.0569, 4.5000)">
<line stroke-linejoin="round" stroke-linecap="round" stroke-width="0.1000" stroke="currentColor" x1="0" y1="1.0000" x2="2.2677" y2="1.0000"/>
</g>
<g transform="translate(0.0569, 4.5000)">
<line stroke-linejoin="round" stroke-linecap="round" stroke-width="0.1000" stroke="currentColor" x1="0" y1="-0.0000" x2="2.2677" y2="-0.0000"/>
</g>
<g transform="translate(0.0569, 4.5000)">
<line stroke-linejoin="round" stroke-linecap="round" stroke-width="0.1000" stroke="currentColor" x1="0" y1="-1.0000" x2="2.2677" y2="-1.0000"/>
</g>
<g transform="translate(0.0569, 4.5000)">
<line stroke-linejoin="round" stroke-linecap="round" stroke-width="0.1000" stroke="currentColor" x1="0" y1="-2.0000" x2="2.2677" y2="-2.0000"/>
</g>
<a style="color:inherit;" xlink:href="textedit://C:/Users/jwloy/OneDrive/Documents/GitHub/string_quartet_no1-composer/lilypond_code/pitches/treble/DTQF4.ly:53:4:5">
<g transform="translate(0.5569, 7.0000)">
<path transform="scale(0.0032, -0.0032)" d="M212 138c59 0 113 -31 113 -95c0 -71 -52 -120 -99 -148c-34 -21 -73 -33 -113 -33c-59 0 -113 31 -113 95c0 71 53 120 100 148c34 21 72 33 112 33z" fill="currentColor"/>
</g>
</a>
<g transform="translate(-0.5931, 7.0000)">
<path transform="scale(0.0020, -0.0020)" d="M213 -182h-24c-30 0 -38 37 -58 57c-54 52 -129 94 -129 169c0 54 26 108 75 108c38 0 74 -17 99 -46l-11 330c11 6 23 9 35 9s24 -3 35 -9l-9 -330c25 29 61 46 99 46c49 0 75 -54 75 -108c0 -75 -75 -117 -129 -169c-20 -20 -28 -57 -58 -57zM163 30
c-1 34 -16 68 -47 68c-26 0 -39 -30 -39 -60c0 -55 43 -97 83 -135c3 20 5 41 5 62v10zM237 30l-2 -55v-10c0 -21 2 -42 5 -62c40 38 83 79 83 134c0 30 -13 61 -39 61c-31 0 -46 -34 -47 -68z" fill="currentColor"/>
</g>
</svg>
