<svg xmlns="http://www.w3.org/2000/svg" xmlns:xlink="http://www.w3.org/1999/xlink" version="1.2" width="130.00mm" height="500.00mm" viewBox="0.0000 -0.0000 73.9772 284.5276">
<style type="text/css">
<![CDATA[
tspan { white-space: pre; }
]]>
</style>
<g transform="translate(3.6015, 3.8853)">
<path transform="scale(0.0040, -0.0040)" d="M0 0c0 -177 201 -293 201 -470c0 -33 -9 -65 -23 -95c18 -37 29 -75 29 -117c0 -63 -15 -125 -41 -183c-5 -8 -13 -12 -20 -12c-13 0 -26 11 -23 27c26 52 42 110 42 168c0 97 -94 190 -165 257v-75h-16v500h16zM151 -517c5 15 8 31 8 47c0 96 -91 190 -159 257
c0 -118 90 -206 151 -304z" fill="currentColor"/>
</g>
<g transform="translate(3.5365, 8.3453)">
<rect x="-0.0650" y="-4.5000" width="0.1300" height="7.3640" ry="0.0400" fill="currentColor"/>
</g>
<g transform="translate(3.0853, 12.9493)">
<path transform="scale(0.0045, -0.0045)" d="M15 0c0 -8 -7 -15 -15 -15s-15 7 -15 15v102c-50 -7 -88 -50 -88 -102c0 -57 46 -103 103 -103s103 46 103 103c0 52 -38 95 -88 102v-102zM-15 132v68c0 8 7 15 15 15s15 -7 15 -15v-68c67 -7 118 -63 118 -132c0 -74 -59 -133 -133 -133s-133 59 -133 133
c0 69 51 125 118 132z" fill="currentColor"/>
</g>
<g transform="translate(2.5691, 11.3453)">
<path transform="scale(0.0032, -0.0032)" d="M212 138c59 0 113 -31 113 -95c0 -71 -52 -120 -99 -148c-34 -21 -73 -33 -113 -33c-59 0 -113 31 -113 95c0 71 53 120 100 148c34 21 72 33 112 33z" fill="currentColor"/>
</g>
</svg>
