<?xml version="1.0" encoding="UTF-8" standalone="no"?>
<svg
   version="1.2"
   width="4.8896189mm"
   height="17.904343mm"
   viewBox="0 0 2.7824639 10.188559"
   id="svg4"
   xmlns="http://www.w3.org/2000/svg"
   xmlns:svg="http://www.w3.org/2000/svg">
  <defs
     id="defs4" />
  <style
     type="text/css"
     id="style1"><![CDATA[
tspan { white-space: pre; }
]]></style>
  <g
     transform="translate(1.5395814,0.25583336)"
     id="g1">
    <path
       transform="scale(0.004,-0.004)"
       d="m 0,0 c 0,-177 201,-293 201,-470 0,-33 -9,-65 -23,-95 18,-37 29,-75 29,-117 0,-63 -15,-125 -41,-183 -5,-8 -13,-12 -20,-12 -13,0 -26,11 -23,27 26,52 42,110 42,168 0,97 -94,190 -165,257 v -75 H -16 V 0 Z m 151,-517 c 5,15 8,31 8,47 0,96 -91,190 -159,257 0,-118 90,-206 151,-304 z"
       fill="currentColor"
       id="path1" />
  </g>
  <g
     transform="translate(1.4745814,4.7158334)"
     id="g2">
    <rect
       x="-0.064999998"
       y="-4.5"
       width="0.13"
       height="7.3639998"
       ry="0.039999999"
       fill="currentColor"
       id="rect1" />
  </g>
  <g
     transform="translate(1.0233814,9.3198334)"
     id="g3">
    <path
       transform="scale(0.0045,-0.0045)"
       d="m 15,0 c 0,-8 -7,-15 -15,-15 -8,0 -15,7 -15,15 v 102 c -50,-7 -88,-50 -88,-102 0,-57 46,-103 103,-103 57,0 103,46 103,103 0,52 -38,95 -88,102 z m -30,132 v 68 c 0,8 7,15 15,15 8,0 15,-7 15,-15 V 132 C 82,125 133,69 133,0 133,-74 74,-133 0,-133 c -74,0 -133,59 -133,133 0,69 51,125 118,132 z"
       fill="currentColor"
       id="path2" />
  </g>
  <g
     transform="translate(0.5071814,7.7158334)"
     id="g4">
    <path
       transform="scale(0.0032,-0.0032)"
       d="m 212,138 c 59,0 113,-31 113,-95 0,-71 -52,-120 -99,-148 -34,-21 -73,-33 -113,-33 -59,0 -113,31 -113,95 0,71 53,120 100,148 34,21 72,33 112,33 z"
       fill="currentColor"
       id="path3" />
  </g>
  <rect
     style="fill:none;stroke:#000000;stroke-width:0.0301483"
     id="rect4"
     width="2.7523153"
     height="10.158413"
     x="0.01507415"
     y="0.01507415" />
</svg>
