<svg xmlns="http://www.w3.org/2000/svg" xmlns:xlink="http://www.w3.org/1999/xlink" version="1.2" width="130.00mm" height="500.00mm" viewBox="0.0000 -0.0000 73.9772 284.5276">
<style type="text/css">
<![CDATA[
tspan { white-space: pre; }
]]>
</style>
<a style="color:inherit;" xlink:href="textedit://C:/Users/jwloy/OneDrive/Documents/GitHub/string_quartet_no1-composer/lilypond_code/col%20legno%20battuto%20ricochet.ly:86:8:9">
<g transform="translate(2.5691, 16.0021)">
<path transform="scale(0.0032, -0.0032)" d="M163 42l111 92c3 3 7 4 11 4s8 -1 11 -4l23 -19c4 -3 6 -8 6 -13s-2 -11 -6 -14l-106 -88l106 -88c4 -3 6 -9 6 -14s-2 -10 -6 -13l-23 -19c-3 -3 -7 -4 -11 -4s-8 1 -11 4l-111 92l-111 -92c-3 -3 -8 -4 -12 -4s-8 1 -11 4l-23 19c-4 3 -6 8 -6 13s2 11 6 14l106 88
l-106 88c-4 3 -6 9 -6 14s2 10 6 13l23 19c3 3 7 4 11 4s9 -1 12 -4z" fill="currentColor"/>
</g>
</a>
<a style="color:inherit;" xlink:href="textedit://C:/Users/jwloy/OneDrive/Documents/GitHub/string_quartet_no1-composer/lilypond_code/col%20legno%20battuto%20ricochet.ly:86:13:14">
<g transform="translate(2.5691, 5.0284)">
<text font-family="Crimson Pro Light" font-style="italic" font-size="1.7461" text-anchor="start" fill="currentColor">
<tspan>col Legno battuto</tspan>
</text>
</g>
<g transform="translate(2.5691, 8.0284)">
<text font-family="Crimson Pro Light" font-style="italic" font-size="1.7461" text-anchor="start" fill="currentColor">
<tspan>ricochet</tspan>
</text>
</g>
</a>
<a style="color:inherit;" xlink:href="textedit://C:/Users/jwloy/OneDrive/Documents/GitHub/string_quartet_no1-composer/lilypond_code/col%20legno%20battuto%20ricochet.ly:86:11:12">
<g transform="translate(3.0853, 16.6408)">
<path transform="scale(0.0040, -0.0040)" d="M112 0c9 0 16 -10 12 -18l-113 -250c-2 -4 -6 -7 -11 -7s-9 3 -11 7l-113 250c-4 8 3 18 12 18h66c5 0 10 -3 12 -7l68 -150l67 150c2 4 6 7 11 7z" fill="currentColor"/>
</g>
</a>
</svg>
