<?xml version="1.0" encoding="UTF-8" standalone="no"?>
<svg
   version="1.2"
   width="19.264879mm"
   height="14.790392mm"
   viewBox="0 0 10.962783 8.4165494"
   id="svg14"
   xmlns:xlink="http://www.w3.org/1999/xlink"
   xmlns="http://www.w3.org/2000/svg"
   xmlns:svg="http://www.w3.org/2000/svg">
  <defs
     id="defs14">
    <rect
       x="105.45807"
       y="9.1928911"
       width="82.736023"
       height="21.334446"
       id="rect14" />
  </defs>
  <style
     type="text/css"
     id="style1"><![CDATA[
tspan { white-space: pre; }
]]></style>
  <g
     id="g15"
     transform="translate(-0.45328633,-4.3313918)">
    <g
       transform="matrix(0.62729738,0,0,1.0051486,0.577438,9.5682971)"
       id="g1">
      <line
         stroke-linejoin="round"
         stroke-linecap="round"
         stroke-width="0.1"
         stroke="currentColor"
         x1="0.050000001"
         y1="0"
         x2="17.0217"
         y2="0"
         id="line1" />
    </g>
    <g
       transform="matrix(0.62729738,0,0,1.0051486,0.577438,8.5631486)"
       id="g2">
      <line
         stroke-linejoin="round"
         stroke-linecap="round"
         stroke-width="0.1"
         stroke="currentColor"
         x1="0.050000001"
         y1="0"
         x2="17.0217"
         y2="0"
         id="line2" />
    </g>
    <g
       transform="matrix(0.62729738,0,0,1.0051486,0.577438,7.558)"
       id="g3">
      <line
         stroke-linejoin="round"
         stroke-linecap="round"
         stroke-width="0.1"
         stroke="currentColor"
         x1="0.050000001"
         y1="0"
         x2="17.0217"
         y2="0"
         id="line3" />
    </g>
    <g
       transform="matrix(0.62729738,0,0,1.0051486,0.577438,6.5528514)"
       id="g4">
      <line
         stroke-linejoin="round"
         stroke-linecap="round"
         stroke-width="0.1"
         stroke="currentColor"
         x1="0.050000001"
         y1="0"
         x2="17.0217"
         y2="0"
         id="line4" />
    </g>
    <g
       transform="matrix(0.62729738,0,0,1.0051486,0.577438,5.5477029)"
       id="g5">
      <line
         stroke-linejoin="round"
         stroke-linecap="round"
         stroke-width="0.1"
         stroke="currentColor"
         x1="0.050000001"
         y1="0"
         x2="17.0217"
         y2="0"
         id="line5" />
    </g>
    <g
       transform="translate(0.5691,10.558)"
       id="g6">
      <rect
         x="1.825"
         y="-0.1"
         width="1.548"
         height="0.2"
         ry="0.1"
         fill="currentColor"
         id="rect5" />
    </g>
    <a
       style="color:inherit"
       xlink:href="textedit://C:/Users/jwloy/OneDrive/Documents/GitHub/string_quartet_no1-composer/lilypond_code/M1_violaCres.ly:84:16:17"
       id="a8"
       transform="matrix(1.403779,0,0,0.98672938,-3.1329085,-1.2963692)">
      <g
         transform="translate(5.1938,12.023)"
         id="g7">
        <line
           stroke-linejoin="round"
           stroke-linecap="round"
           stroke-width="0.1"
           stroke="currentColor"
           x1="0"
           y1="0"
           x2="4.0469999"
           y2="0.66659999"
           id="line6" />
      </g>
      <g
         transform="translate(5.1938,12.023)"
         id="g8">
        <line
           stroke-linejoin="round"
           stroke-linecap="round"
           stroke-width="0.1"
           stroke="currentColor"
           x1="0"
           y1="0"
           x2="4.0469999"
           y2="-0.66659999"
           id="line7" />
      </g>
    </a>
    <g
       transform="translate(1.5261,10.558)"
       id="g9">
      <path
         transform="scale(0.0025,-0.0025)"
         d="m 0,112 c 0,13 8,25 20,30 l 34,13 v 148 c 0,13 10,24 23,24 13,0 24,-11 24,-24 V 174 l 73,29 v 148 c 0,13 11,24 24,24 13,0 23,-11 23,-24 V 222 l 10,4 c 4,2 8,2 12,2 17,0 32,-14 32,-32 v -46 c 0,-13 -8,-24 -20,-29 L 221,107 V -41 l 10,4 c 4,2 8,3 12,3 17,0 32,-14 32,-32 v -46 c 0,-13 -8,-25 -20,-30 l -34,-13 v -148 c 0,-13 -10,-24 -23,-24 -13,0 -24,11 -24,24 v 129 l -73,-29 v -148 c 0,-13 -11,-24 -24,-24 -13,0 -23,11 -23,24 v 129 l -10,-4 c -4,-2 -8,-2 -12,-2 -17,0 -32,14 -32,32 v 46 c 0,13 8,24 20,29 l 34,14 V 41 L 44,37 C 40,35 36,34 32,34 15,34 0,48 0,66 Z M 174,89 101,59 V -89 l 73,30 z"
         fill="currentColor"
         id="path8" />
    </g>
    <a
       style="color:inherit"
       xlink:href="textedit://C:/Users/jwloy/OneDrive/Documents/GitHub/string_quartet_no1-composer/lilypond_code/M1_violaCres.ly:84:12:13"
       id="a12">
      <g
         transform="translate(2.0427,12.323)"
         id="g12">
        <g
           id="g11">
          <path
             transform="scale(0.002,-0.002)"
             d="M 233,243 C 176,243 129,131 129,65 c 0,-22 9,-38 31,-38 17,0 35,12 47,28 24,33 51,118 51,155 0,18 -7,33 -25,33 z M 70,243 C 18,243 26,120 -31,120 c -12,0 -21,6 -21,18 0,4 1,8 3,13 30,68 75,141 136,141 33,0 53,-23 60,-52 29,31 67,52 103,52 69,0 107,-49 107,-114 0,-94 -82,-190 -160,-190 -27,0 -52,5 -73,17 -10,6 -24,5 -27,-4 L 80,-50 c -3,-8 -4,-16 -4,-23 0,-24 10,-29 32,-31 13,-1 19,-11 19,-21 0,-10 -7,-21 -20,-21 -35,0 -72,5 -108,5 -37,0 -74,-5 -109,-5 -13,0 -20,11 -20,21 0,23 29,22 52,23 25,2 49,15 57,39 l 92,272 c 3,9 7,18 7,25 0,5 -2,9 -8,9 z"
             fill="currentColor"
             id="path9" />
          <path
             transform="matrix(0.002,0,0,-0.002,0.717,0)"
             d="M 233,243 C 176,243 129,131 129,65 c 0,-22 9,-38 31,-38 17,0 35,12 47,28 24,33 51,118 51,155 0,18 -7,33 -25,33 z M 70,243 C 18,243 26,120 -31,120 c -12,0 -21,6 -21,18 0,4 1,8 3,13 30,68 75,141 136,141 33,0 53,-23 60,-52 29,31 67,52 103,52 69,0 107,-49 107,-114 0,-94 -82,-190 -160,-190 -27,0 -52,5 -73,17 -10,6 -24,5 -27,-4 L 80,-50 c -3,-8 -4,-16 -4,-23 0,-24 10,-29 32,-31 13,-1 19,-11 19,-21 0,-10 -7,-21 -20,-21 -35,0 -72,5 -108,5 -37,0 -74,-5 -109,-5 -13,0 -20,11 -20,21 0,23 29,22 52,23 25,2 49,15 57,39 l 92,272 c 3,9 7,18 7,25 0,5 -2,9 -8,9 z"
             fill="currentColor"
             id="path10" />
          <path
             transform="matrix(0.002,0,0,-0.002,1.434,0)"
             d="M 233,243 C 176,243 129,131 129,65 c 0,-22 9,-38 31,-38 17,0 35,12 47,28 24,33 51,118 51,155 0,18 -7,33 -25,33 z M 70,243 C 18,243 26,120 -31,120 c -12,0 -21,6 -21,18 0,4 1,8 3,13 30,68 75,141 136,141 33,0 53,-23 60,-52 29,31 67,52 103,52 69,0 107,-49 107,-114 0,-94 -82,-190 -160,-190 -27,0 -52,5 -73,17 -10,6 -24,5 -27,-4 L 80,-50 c -3,-8 -4,-16 -4,-23 0,-24 10,-29 32,-31 13,-1 19,-11 19,-21 0,-10 -7,-21 -20,-21 -35,0 -72,5 -108,5 -37,0 -74,-5 -109,-5 -13,0 -20,11 -20,21 0,23 29,22 52,23 25,2 49,15 57,39 l 92,272 c 3,9 7,18 7,25 0,5 -2,9 -8,9 z"
             fill="currentColor"
             id="path11" />
        </g>
      </g>
    </a>
    <a
       style="color:inherit"
       xlink:href="textedit://C:/Users/jwloy/OneDrive/Documents/GitHub/string_quartet_no1-composer/lilypond_code/M1_violaCres.ly:84:18:19"
       id="a13">
      <g
         transform="translate(2.4124088,5.2161645)"
         id="g13">
        <text
           font-family="'Crimson Pro Light'"
           font-style="italic"
           font-size="1.0998px"
           text-anchor="start"
           fill="currentColor"
           id="text12"><tspan
             id="tspan12"
             style="font-style:italic;font-variant:normal;font-weight:300;font-stretch:normal;font-family:'Crimson Pro';-inkscape-font-specification:'Crimson Pro Light Italic'">Non-Vib</tspan></text>
      </g>
    </a>
    <a
       style="color:inherit"
       xlink:href="textedit://C:/Users/jwloy/OneDrive/Documents/GitHub/string_quartet_no1-composer/lilypond_code/M1_violaCres.ly:84:8:9"
       id="a14">
      <g
         transform="translate(2.5691,10.558)"
         id="g14">
        <path
           transform="scale(0.0032,-0.0032)"
           d="m 310,63 c 0,23 -19,40 -40,40 -4,0 -8,-1 -12,-2 C 228,93 183,63 147,40 111,17 66,-12 46,-36 39,-44 36,-53 36,-63 c 0,-23 19,-40 40,-40 4,0 8,1 12,2 30,8 75,38 111,61 36,23 81,52 101,76 7,8 10,17 10,27 z m -54,75 c 50,0 90,-22 90,-77 0,-18 -5,-37 -10,-55 -11,-38 -30,-74 -63,-96 -53,-35 -111,-48 -183,-48 -50,0 -90,22 -90,77 0,18 5,37 10,55 11,38 30,74 63,96 53,36 111,48 183,48 z"
           fill="currentColor"
           id="path13" />
      </g>
    </a>
  </g>
  <rect
     style="fill:none;stroke:#000000;stroke-width:0.0335742"
     id="rect15"
     width="10.929207"
     height="8.3829765"
     x="0.016787101"
     y="0.016787101" />
</svg>
