<?xml version="1.0" encoding="UTF-8" standalone="no"?>
<svg
   version="1.2"
   width="10.865074mm"
   height="10.8813mm"
   viewBox="0 0 6.182829 6.1920603"
   id="svg6"
   xmlns:xlink="http://www.w3.org/1999/xlink"
   xmlns="http://www.w3.org/2000/svg"
   xmlns:svg="http://www.w3.org/2000/svg">
  <defs
     id="defs6" />
  <style
     type="text/css"
     id="style1"><![CDATA[
tspan { white-space: pre; }
]]></style>
  <g
     id="g7"
     transform="translate(-2.1160621,-10.582828)">
    <a
       style="color:inherit"
       xlink:href="textedit://C:/Users/jwloy/OneDrive/Documents/GitHub/string_quartet_no1-composer/lilypond_code/M2a_jete.ly:86:8:9"
       id="a1">
      <g
         transform="translate(2.5691,13.1467)"
         id="g1">
        <path
           transform="scale(0.0032,-0.0032)"
           d="m 212,138 c 59,0 113,-31 113,-95 0,-71 -52,-120 -99,-148 -34,-21 -73,-33 -113,-33 -59,0 -113,31 -113,95 0,71 53,120 100,148 34,21 72,33 112,33 z"
           fill="currentColor"
           id="path1" />
      </g>
    </a>
    <a
       style="color:inherit"
       xlink:href="textedit://C:/Users/jwloy/OneDrive/Documents/GitHub/string_quartet_no1-composer/lilypond_code/M2a_jete.ly:86:17:18"
       id="a2"
       transform="translate(-0.05539868,6.9340687)">
      <g
         transform="translate(2.5691,5.1714)"
         id="g2">
        <text
           font-family="'Crimson Pro Light'"
           font-style="italic"
           font-size="1.96px"
           text-anchor="start"
           fill="currentColor"
           id="text1"><tspan
             id="tspan1"
             style="font-style:italic;font-variant:normal;font-weight:300;font-stretch:normal;font-family:'Crimson Pro';-inkscape-font-specification:'Crimson Pro Light Italic'">ricochet</tspan></text>
      </g>
    </a>
    <a
       style="color:inherit"
       xlink:href="textedit://C:/Users/jwloy/OneDrive/Documents/GitHub/string_quartet_no1-composer/lilypond_code/M2a_jete.ly:86:13:14"
       id="a5">
      <g
         transform="translate(2.2659,16.1597)"
         id="g5">
        <g
           id="g4">
          <path
             transform="scale(0.002,-0.002)"
             d="m 180,219 c 0,6 6,12 6,18 0,10 -8,19 -19,19 -21,0 -42,-11 -42,-30 0,-16 16,-26 31,-33 34,-17 69,-39 69,-76 C 225,51 170,0 103,0 60,0 26,36 26,80 c 0,21 12,42 31,42 18,0 32,-15 32,-33 C 89,76 67,73 67,60 67,47 82,41 96,41 c 35,0 69,17 69,48 0,55 -101,54 -101,109 0,51 40,94 90,94 60,0 85,-36 85,-64 0,-17 -10,-31 -27,-31 -18,0 -32,11 -32,22 z"
             fill="currentColor"
             id="path2" />
          <path
             transform="matrix(0.002,0,0,-0.002,0.4097,0)"
             d="M 250,221 203,68 C 173,-31 82,-187 -15,-187 c -48,0 -87,39 -87,88 0,39 17,77 52,77 24,0 44,-19 44,-43 0,-30 -38,-25 -38,-55 0,-10 11,-11 23,-11 h 6 c 42,0 62,45 73,89 l 66,263 H 87 c -16,0 -29,13 -29,29 0,16 13,29 29,29 h 53 c 34,92 119,181 210,181 48,0 87,-40 87,-89 0,-39 -17,-77 -52,-77 -24,0 -44,20 -44,44 0,30 38,25 38,55 0,10 -10,10 -22,10 h -7 c -52,0 -68,-67 -83,-124 h 42 c 16,0 29,-13 29,-29 0,-16 -13,-29 -29,-29 z"
             fill="currentColor"
             id="path3" />
          <path
             transform="matrix(0.002,0,0,-0.002,1.0584,0)"
             d="m 128,192 c -24,0 -50,-7 -71,-7 -9,0 -15,3 -15,12 0,30 28,70 57,70 34,0 60,-34 94,-34 13,0 24,6 33,15 5,4 9,7 14,7 11,0 21,-11 21,-22 0,-5 -2,-10 -7,-15 L 102,71 c 26,-5 47,-30 74,-30 33,0 59,23 59,49 0,7 -4,15 -4,22 0,12 10,20 21,20 25,0 34,-55 34,-77 0,-63 -70,-97 -140,-97 -35,0 -38,59 -73,59 C 59,17 45,15 35,6 30,2 26,0 21,0 10,0 0,10 0,21 0,26 1,31 6,36 l 161,156 h -3 z"
             fill="currentColor"
             id="path4" />
        </g>
      </g>
    </a>
    <a
       style="color:inherit"
       xlink:href="textedit://C:/Users/jwloy/OneDrive/Documents/GitHub/string_quartet_no1-composer/lilypond_code/M2a_jete.ly:86:11:12"
       id="a6">
      <g
         transform="translate(3.0853,13.7854)"
         id="g6">
        <path
           transform="scale(0.004,-0.004)"
           d="m 112,0 c 9,0 16,-10 12,-18 L 11,-268 c -2,-4 -6,-7 -11,-7 -5,0 -9,3 -11,7 l -113,250 c -4,8 3,18 12,18 h 66 c 5,0 10,-3 12,-7 l 68,-150 67,150 c 2,4 6,7 11,7 z"
           fill="currentColor"
           id="path5" />
      </g>
    </a>
  </g>
  <rect
     style="fill:none;stroke:#000000;stroke-width:0.034032"
     id="rect7"
     width="6.1487961"
     height="6.1580291"
     x="0.017015999"
     y="0.017015999" />
</svg>
