<svg xmlns="http://www.w3.org/2000/svg" xmlns:xlink="http://www.w3.org/1999/xlink" version="1.2" width="210.00mm" height="297.00mm" viewBox="0.0000 -0.0000 119.5016 169.0094">
<style type="text/css">
<![CDATA[
tspan { white-space: pre; }
]]>
</style>
<g transform="translate(47.9324, 7.2522)">
<rect x="0.0000" y="-2.0000" width="0.1900" height="4.0250" ry="0.0000" fill="currentColor"/>
</g>
<g transform="translate(69.6259, 16.2522)">
<rect x="0.0000" y="-2.0250" width="0.1900" height="4.0500" ry="0.0000" fill="currentColor"/>
</g>
<g transform="translate(113.6210, 34.2522)">
<rect x="0.0000" y="-2.0250" width="0.1900" height="4.0250" ry="0.0000" fill="currentColor"/>
</g>
<g transform="translate(113.6210, 25.2522)">
<rect x="0.0000" y="-2.0250" width="0.1900" height="4.0500" ry="0.0000" fill="currentColor"/>
</g>
<g transform="translate(69.6259, 25.2522)">
<rect x="0.0000" y="-2.0250" width="0.1900" height="4.0500" ry="0.0000" fill="currentColor"/>
</g>
<g transform="translate(113.6210, 16.2522)">
<rect x="0.0000" y="-2.0250" width="0.1900" height="4.0500" ry="0.0000" fill="currentColor"/>
</g>
<g transform="translate(113.6210, 7.2522)">
<rect x="0.0000" y="-2.0000" width="0.1900" height="4.0250" ry="0.0000" fill="currentColor"/>
</g>
<g transform="translate(96.6863, 2.7072)">
<rect x="0.0000" y="24.5700" width="0.1900" height="4.9750" ry="0.0000" fill="currentColor"/>
</g>
<g transform="translate(96.6863, 2.7072)">
<rect x="0.0000" y="15.5700" width="0.1900" height="4.9750" ry="0.0000" fill="currentColor"/>
</g>
<g transform="translate(96.6863, 2.7072)">
<rect x="0.0000" y="6.5700" width="0.1900" height="4.9750" ry="0.0000" fill="currentColor"/>
</g>
<g transform="translate(47.9324, 2.7072)">
<rect x="0.0000" y="24.5700" width="0.1900" height="4.9750" ry="0.0000" fill="currentColor"/>
</g>
<g transform="translate(47.9324, 2.7072)">
<rect x="0.0000" y="15.5700" width="0.1900" height="4.9750" ry="0.0000" fill="currentColor"/>
</g>
<g transform="translate(47.9324, 2.7072)">
<rect x="0.0000" y="6.5700" width="0.1900" height="4.9750" ry="0.0000" fill="currentColor"/>
</g>
<g transform="translate(69.6259, 34.2522)">
<rect x="0.0000" y="-2.0250" width="0.1900" height="4.0250" ry="0.0000" fill="currentColor"/>
</g>
<g transform="translate(47.9324, 16.2522)">
<rect x="0.0000" y="-2.0250" width="0.1900" height="4.0500" ry="0.0000" fill="currentColor"/>
</g>
<g transform="translate(96.6863, 7.2522)">
<rect x="0.0000" y="-2.0000" width="0.1900" height="4.0250" ry="0.0000" fill="currentColor"/>
</g>
<g transform="translate(96.6863, 16.2522)">
<rect x="0.0000" y="-2.0250" width="0.1900" height="4.0500" ry="0.0000" fill="currentColor"/>
</g>
<g transform="translate(47.9324, 25.2522)">
<rect x="0.0000" y="-2.0250" width="0.1900" height="4.0500" ry="0.0000" fill="currentColor"/>
</g>
<g transform="translate(69.6259, 2.7072)">
<rect x="0.0000" y="24.5700" width="0.1900" height="4.9750" ry="0.0000" fill="currentColor"/>
</g>
<g transform="translate(69.6259, 2.7072)">
<rect x="0.0000" y="15.5700" width="0.1900" height="4.9750" ry="0.0000" fill="currentColor"/>
</g>
<g transform="translate(69.6259, 2.7072)">
<rect x="0.0000" y="6.5700" width="0.1900" height="4.9750" ry="0.0000" fill="currentColor"/>
</g>
<g transform="translate(96.6863, 25.2522)">
<rect x="0.0000" y="-2.0250" width="0.1900" height="4.0500" ry="0.0000" fill="currentColor"/>
</g>
<g transform="translate(96.6863, 34.2522)">
<rect x="0.0000" y="-2.0250" width="0.1900" height="4.0250" ry="0.0000" fill="currentColor"/>
</g>
<g transform="translate(47.9324, 34.2522)">
<rect x="0.0000" y="-2.0250" width="0.1900" height="4.0250" ry="0.0000" fill="currentColor"/>
</g>
<g transform="translate(14.2264, 9.2522)">
<line stroke-linejoin="round" stroke-linecap="round" stroke-width="0.0500" stroke="currentColor" x1="0.0250" y1="0" x2="99.5596" y2="0"/>
</g>
<g transform="translate(14.2264, 8.2522)">
<line stroke-linejoin="round" stroke-linecap="round" stroke-width="0.0500" stroke="currentColor" x1="0.0250" y1="0" x2="99.5596" y2="0"/>
</g>
<g transform="translate(14.2264, 7.2522)">
<line stroke-linejoin="round" stroke-linecap="round" stroke-width="0.0500" stroke="currentColor" x1="0.0250" y1="0" x2="99.5596" y2="0"/>
</g>
<g transform="translate(14.2264, 6.2522)">
<line stroke-linejoin="round" stroke-linecap="round" stroke-width="0.0500" stroke="currentColor" x1="0.0250" y1="0" x2="99.5596" y2="0"/>
</g>
<g transform="translate(14.2264, 5.2522)">
<line stroke-linejoin="round" stroke-linecap="round" stroke-width="0.0500" stroke="currentColor" x1="0.0250" y1="0" x2="99.5596" y2="0"/>
</g>
<g transform="translate(14.2264, 27.2522)">
<line stroke-linejoin="round" stroke-linecap="round" stroke-width="0.0500" stroke="currentColor" x1="0.0250" y1="0" x2="99.5596" y2="0"/>
</g>
<g transform="translate(14.2264, 26.2522)">
<line stroke-linejoin="round" stroke-linecap="round" stroke-width="0.0500" stroke="currentColor" x1="0.0250" y1="0" x2="99.5596" y2="0"/>
</g>
<g transform="translate(14.2264, 25.2522)">
<line stroke-linejoin="round" stroke-linecap="round" stroke-width="0.0500" stroke="currentColor" x1="0.0250" y1="0" x2="99.5596" y2="0"/>
</g>
<g transform="translate(14.2264, 24.2522)">
<line stroke-linejoin="round" stroke-linecap="round" stroke-width="0.0500" stroke="currentColor" x1="0.0250" y1="0" x2="99.5596" y2="0"/>
</g>
<g transform="translate(14.2264, 23.2522)">
<line stroke-linejoin="round" stroke-linecap="round" stroke-width="0.0500" stroke="currentColor" x1="0.0250" y1="0" x2="99.5596" y2="0"/>
</g>
<g transform="translate(5.6906, 22.2522)">
<rect x="78.3051" y="-0.0750" width="1.9563" height="0.1500" ry="0.0750" fill="currentColor"/>
</g>
<g transform="translate(5.6906, 22.2522)">
<rect x="72.0231" y="-0.0750" width="1.9563" height="0.1500" ry="0.0750" fill="currentColor"/>
</g>
<g transform="translate(5.6906, 22.2522)">
<rect x="65.7410" y="-0.0750" width="1.9563" height="0.1500" ry="0.0750" fill="currentColor"/>
</g>
<g transform="translate(5.6906, 31.2522)">
<rect x="72.0231" y="-0.0750" width="1.9563" height="0.1500" ry="0.0750" fill="currentColor"/>
</g>
<g transform="translate(14.2264, 18.2522)">
<line stroke-linejoin="round" stroke-linecap="round" stroke-width="0.0500" stroke="currentColor" x1="0.0250" y1="0" x2="99.5596" y2="0"/>
</g>
<g transform="translate(14.2264, 17.2522)">
<line stroke-linejoin="round" stroke-linecap="round" stroke-width="0.0500" stroke="currentColor" x1="0.0250" y1="0" x2="99.5596" y2="0"/>
</g>
<g transform="translate(14.2264, 16.2522)">
<line stroke-linejoin="round" stroke-linecap="round" stroke-width="0.0500" stroke="currentColor" x1="0.0250" y1="0" x2="99.5596" y2="0"/>
</g>
<g transform="translate(14.2264, 15.2522)">
<line stroke-linejoin="round" stroke-linecap="round" stroke-width="0.0500" stroke="currentColor" x1="0.0250" y1="0" x2="99.5596" y2="0"/>
</g>
<g transform="translate(14.2264, 14.2522)">
<line stroke-linejoin="round" stroke-linecap="round" stroke-width="0.0500" stroke="currentColor" x1="0.0250" y1="0" x2="99.5596" y2="0"/>
</g>
<g transform="translate(14.2264, 36.2522)">
<line stroke-linejoin="round" stroke-linecap="round" stroke-width="0.0500" stroke="currentColor" x1="0.0250" y1="0" x2="99.5596" y2="0"/>
</g>
<g transform="translate(14.2264, 35.2522)">
<line stroke-linejoin="round" stroke-linecap="round" stroke-width="0.0500" stroke="currentColor" x1="0.0250" y1="0" x2="99.5596" y2="0"/>
</g>
<g transform="translate(14.2264, 34.2522)">
<line stroke-linejoin="round" stroke-linecap="round" stroke-width="0.0500" stroke="currentColor" x1="0.0250" y1="0" x2="99.5596" y2="0"/>
</g>
<g transform="translate(14.2264, 33.2522)">
<line stroke-linejoin="round" stroke-linecap="round" stroke-width="0.0500" stroke="currentColor" x1="0.0250" y1="0" x2="99.5596" y2="0"/>
</g>
<g transform="translate(14.2264, 32.2522)">
<line stroke-linejoin="round" stroke-linecap="round" stroke-width="0.0500" stroke="currentColor" x1="0.0250" y1="0" x2="99.5596" y2="0"/>
</g>
<g transform="translate(69.6259, 7.2522)">
<rect x="0.0000" y="-2.0000" width="0.1900" height="4.0250" ry="0.0000" fill="currentColor"/>
</g>
<g transform="translate(113.6210, 2.7072)">
<rect x="0.0000" y="24.5700" width="0.1900" height="4.9750" ry="0.0000" fill="currentColor"/>
</g>
<g transform="translate(113.6210, 2.7072)">
<rect x="0.0000" y="15.5700" width="0.1900" height="4.9750" ry="0.0000" fill="currentColor"/>
</g>
<g transform="translate(113.6210, 2.7072)">
<rect x="0.0000" y="6.5700" width="0.1900" height="4.9750" ry="0.0000" fill="currentColor"/>
</g>
<g transform="translate(5.6906, 4.2522)">
<rect x="84.5872" y="-0.0750" width="1.9563" height="0.1500" ry="0.0750" fill="currentColor"/>
</g>
<g transform="translate(5.6906, 4.2522)">
<rect x="78.3051" y="-0.0750" width="1.9563" height="0.1500" ry="0.0750" fill="currentColor"/>
</g>
<g transform="translate(5.6906, 3.2522)">
<rect x="72.0231" y="-0.0750" width="1.9563" height="0.1500" ry="0.0750" fill="currentColor"/>
</g>
<g transform="translate(5.6906, 4.2522)">
<rect x="72.0231" y="-0.0750" width="1.9563" height="0.1500" ry="0.0750" fill="currentColor"/>
</g>
<g transform="translate(5.6906, 4.2522)">
<rect x="65.7410" y="-0.0750" width="1.9563" height="0.1500" ry="0.0750" fill="currentColor"/>
</g>
<g transform="translate(5.6906, 4.2522)">
<rect x="53.9150" y="-0.0750" width="2.0660" height="0.1500" ry="0.0750" fill="currentColor"/>
</g>
<g transform="translate(78.0722, 7.2522)">
<rect x="-0.0325" y="-3.8139" width="0.0650" height="3.8139" ry="0.0325" fill="currentColor"/>
</g>
<g transform="translate(84.3542, 16.2522)">
<rect x="-0.0325" y="-0.8139" width="0.0650" height="3.3139" ry="0.0325" fill="currentColor"/>
</g>
<a style="color:inherit;" xlink:href="textedit://C:/Users/jwloy/OneDrive/Documents/GitHub/string_quartet_no1-composer/lilypond_code/string_quartet_template.ly:100:5:6">
<g transform="translate(78.0397, 31.2522)">
<path transform="scale(0.0040, -0.0040)" d="M218 136c55 0 108 -28 108 -89c0 -71 -55 -121 -102 -149c-35 -21 -75 -34 -116 -34c-55 0 -108 28 -108 89c0 71 55 121 102 149c35 21 75 34 116 34z" fill="currentColor"/>
</g>
</a>
<a style="color:inherit;" xlink:href="textedit://C:/Users/jwloy/OneDrive/Documents/GitHub/string_quartet_no1-composer/lilypond_code/string_quartet_template.ly:86:6:7">
<g transform="translate(78.0397, 21.7522)">
<path transform="scale(0.0040, -0.0040)" d="M218 136c55 0 108 -28 108 -89c0 -71 -55 -121 -102 -149c-35 -21 -75 -34 -116 -34c-55 0 -108 28 -108 89c0 71 55 121 102 149c35 21 75 34 116 34z" fill="currentColor"/>
</g>
</a>
<a style="color:inherit;" xlink:href="textedit://C:/Users/jwloy/OneDrive/Documents/GitHub/string_quartet_no1-composer/lilypond_code/string_quartet_template.ly:72:7:8">
<g transform="translate(78.0397, 14.7522)">
<path transform="scale(0.0040, -0.0040)" d="M218 136c55 0 108 -28 108 -89c0 -71 -55 -121 -102 -149c-35 -21 -75 -34 -116 -34c-55 0 -108 28 -108 89c0 71 55 121 102 149c35 21 75 34 116 34z" fill="currentColor"/>
</g>
</a>
<g transform="translate(59.9824, 34.2522)">
<rect x="-0.0325" y="-1.7410" width="0.0650" height="3.2410" ry="0.0325" fill="currentColor"/>
</g>
<a style="color:inherit;" xlink:href="textedit://C:/Users/jwloy/OneDrive/Documents/GitHub/string_quartet_no1-composer/lilypond_code/string_quartet_template.ly:58:7:8">
<g transform="translate(78.0397, 3.2522)">
<path transform="scale(0.0040, -0.0040)" d="M218 136c55 0 108 -28 108 -89c0 -71 -55 -121 -102 -149c-35 -21 -75 -34 -116 -34c-55 0 -108 28 -108 89c0 71 55 121 102 149c35 21 75 34 116 34z" fill="currentColor"/>
</g>
</a>
<g transform="translate(78.0722, 34.2522)">
<rect x="-0.0325" y="-2.8139" width="0.0650" height="3.3139" ry="0.0325" fill="currentColor"/>
</g>
<g transform="translate(84.3542, 7.2522)">
<rect x="-0.0325" y="-3.3139" width="0.0650" height="3.3139" ry="0.0325" fill="currentColor"/>
</g>
<a style="color:inherit;" xlink:href="textedit://C:/Users/jwloy/OneDrive/Documents/GitHub/string_quartet_no1-composer/lilypond_code/string_quartet_template.ly:86:11:12">
<g transform="translate(84.3217, 22.2522)">
<path transform="scale(0.0040, -0.0040)" d="M218 136c55 0 108 -28 108 -89c0 -71 -55 -121 -102 -149c-35 -21 -75 -34 -116 -34c-55 0 -108 28 -108 89c0 71 55 121 102 149c35 21 75 34 116 34z" fill="currentColor"/>
</g>
</a>
<a style="color:inherit;" xlink:href="textedit://C:/Users/jwloy/OneDrive/Documents/GitHub/string_quartet_no1-composer/lilypond_code/string_quartet_template.ly:72:12:13">
<g transform="translate(84.3217, 15.2522)">
<path transform="scale(0.0040, -0.0040)" d="M218 136c55 0 108 -28 108 -89c0 -71 -55 -121 -102 -149c-35 -21 -75 -34 -116 -34c-55 0 -108 28 -108 89c0 71 55 121 102 149c35 21 75 34 116 34z" fill="currentColor"/>
</g>
</a>
<a style="color:inherit;" xlink:href="textedit://C:/Users/jwloy/OneDrive/Documents/GitHub/string_quartet_no1-composer/lilypond_code/string_quartet_template.ly:58:13:14">
<g transform="translate(84.3217, 3.7522)">
<path transform="scale(0.0040, -0.0040)" d="M218 136c55 0 108 -28 108 -89c0 -71 -55 -121 -102 -149c-35 -21 -75 -34 -116 -34c-55 0 -108 28 -108 89c0 71 55 121 102 149c35 21 75 34 116 34z" fill="currentColor"/>
</g>
</a>
<g transform="translate(78.0722, 16.2522)">
<rect x="-0.0325" y="-1.3139" width="0.0650" height="3.3139" ry="0.0325" fill="currentColor"/>
</g>
<g transform="translate(78.0722, 25.2522)">
<rect x="-0.0325" y="-3.3139" width="0.0650" height="3.3139" ry="0.0325" fill="currentColor"/>
</g>
<a style="color:inherit;" xlink:href="textedit://C:/Users/jwloy/OneDrive/Documents/GitHub/string_quartet_no1-composer/lilypond_code/string_quartet_template.ly:100:9:10">
<g transform="translate(84.3217, 31.7522)">
<path transform="scale(0.0040, -0.0040)" d="M218 136c55 0 108 -28 108 -89c0 -71 -55 -121 -102 -149c-35 -21 -75 -34 -116 -34c-55 0 -108 28 -108 89c0 71 55 121 102 149c35 21 75 34 116 34z" fill="currentColor"/>
</g>
</a>
<g transform="translate(71.7901, 7.2522)">
<rect x="-0.0325" y="-3.3139" width="0.0650" height="3.3139" ry="0.0325" fill="currentColor"/>
</g>
<a style="color:inherit;" xlink:href="textedit://C:/Users/jwloy/OneDrive/Documents/GitHub/string_quartet_no1-composer/lilypond_code/string_quartet_template.ly:100:2:3">
<g transform="translate(71.7576, 31.7522)">
<path transform="scale(0.0040, -0.0040)" d="M218 136c55 0 108 -28 108 -89c0 -71 -55 -121 -102 -149c-35 -21 -75 -34 -116 -34c-55 0 -108 28 -108 89c0 71 55 121 102 149c35 21 75 34 116 34z" fill="currentColor"/>
</g>
</a>
<a style="color:inherit;" xlink:href="textedit://C:/Users/jwloy/OneDrive/Documents/GitHub/string_quartet_no1-composer/lilypond_code/string_quartet_template.ly:86:2:3">
<g transform="translate(71.7576, 22.2522)">
<path transform="scale(0.0040, -0.0040)" d="M218 136c55 0 108 -28 108 -89c0 -71 -55 -121 -102 -149c-35 -21 -75 -34 -116 -34c-55 0 -108 28 -108 89c0 71 55 121 102 149c35 21 75 34 116 34z" fill="currentColor"/>
</g>
</a>
<a style="color:inherit;" xlink:href="textedit://C:/Users/jwloy/OneDrive/Documents/GitHub/string_quartet_no1-composer/lilypond_code/string_quartet_template.ly:72:2:3">
<g transform="translate(71.7576, 15.2522)">
<path transform="scale(0.0040, -0.0040)" d="M218 136c55 0 108 -28 108 -89c0 -71 -55 -121 -102 -149c-35 -21 -75 -34 -116 -34c-55 0 -108 28 -108 89c0 71 55 121 102 149c35 21 75 34 116 34z" fill="currentColor"/>
</g>
</a>
<a style="color:inherit;" xlink:href="textedit://C:/Users/jwloy/OneDrive/Documents/GitHub/string_quartet_no1-composer/lilypond_code/string_quartet_template.ly:58:2:3">
<g transform="translate(71.7576, 3.7522)">
<path transform="scale(0.0040, -0.0040)" d="M218 136c55 0 108 -28 108 -89c0 -71 -55 -121 -102 -149c-35 -21 -75 -34 -116 -34c-55 0 -108 28 -108 89c0 71 55 121 102 149c35 21 75 34 116 34z" fill="currentColor"/>
</g>
</a>
<g transform="translate(71.7901, 34.2522)">
<rect x="-0.0325" y="-2.3139" width="0.0650" height="3.3139" ry="0.0325" fill="currentColor"/>
</g>
<g transform="translate(71.7901, 25.2522)">
<rect x="-0.0325" y="-2.8139" width="0.0650" height="3.3139" ry="0.0325" fill="currentColor"/>
</g>
<g transform="translate(71.7901, 16.2522)">
<rect x="-0.0325" y="-0.8139" width="0.0650" height="3.3139" ry="0.0325" fill="currentColor"/>
</g>
<a style="color:inherit;" xlink:href="textedit://C:/Users/jwloy/OneDrive/Documents/GitHub/string_quartet_no1-composer/lilypond_code/string_quartet_template.ly:72:17:18">
<g transform="translate(90.6038, 15.7522)">
<path transform="scale(0.0040, -0.0040)" d="M218 136c55 0 108 -28 108 -89c0 -71 -55 -121 -102 -149c-35 -21 -75 -34 -116 -34c-55 0 -108 28 -108 89c0 71 55 121 102 149c35 21 75 34 116 34z" fill="currentColor"/>
</g>
</a>
<g transform="translate(90.6363, 16.2522)">
<rect x="-0.0325" y="-0.3139" width="0.0650" height="3.3139" ry="0.0325" fill="currentColor"/>
</g>
<g transform="translate(90.6363, 7.2522)">
<rect x="-0.0325" y="-2.8139" width="0.0650" height="3.3139" ry="0.0325" fill="currentColor"/>
</g>
<a style="color:inherit;" xlink:href="textedit://C:/Users/jwloy/OneDrive/Documents/GitHub/string_quartet_no1-composer/lilypond_code/string_quartet_template.ly:100:12:13">
<g transform="translate(90.6038, 32.2522)">
<path transform="scale(0.0040, -0.0040)" d="M218 136c55 0 108 -28 108 -89c0 -71 -55 -121 -102 -149c-35 -21 -75 -34 -116 -34c-55 0 -108 28 -108 89c0 71 55 121 102 149c35 21 75 34 116 34z" fill="currentColor"/>
</g>
</a>
<a style="color:inherit;" xlink:href="textedit://C:/Users/jwloy/OneDrive/Documents/GitHub/string_quartet_no1-composer/lilypond_code/string_quartet_template.ly:86:15:16">
<g transform="translate(90.6038, 22.7522)">
<path transform="scale(0.0040, -0.0040)" d="M218 136c55 0 108 -28 108 -89c0 -71 -55 -121 -102 -149c-35 -21 -75 -34 -116 -34c-55 0 -108 28 -108 89c0 71 55 121 102 149c35 21 75 34 116 34z" fill="currentColor"/>
</g>
</a>
<g transform="translate(90.6363, 25.2522)">
<rect x="-0.0325" y="-2.3139" width="0.0650" height="3.3139" ry="0.0325" fill="currentColor"/>
</g>
<a style="color:inherit;" xlink:href="textedit://C:/Users/jwloy/OneDrive/Documents/GitHub/string_quartet_no1-composer/lilypond_code/string_quartet_template.ly:58:18:19">
<g transform="translate(90.6038, 4.2522)">
<path transform="scale(0.0040, -0.0040)" d="M218 136c55 0 108 -28 108 -89c0 -71 -55 -121 -102 -149c-35 -21 -75 -34 -116 -34c-55 0 -108 28 -108 89c0 71 55 121 102 149c35 21 75 34 116 34z" fill="currentColor"/>
</g>
</a>
<g transform="translate(84.3542, 34.2522)">
<rect x="-0.0325" y="-2.3139" width="0.0650" height="3.3139" ry="0.0325" fill="currentColor"/>
</g>
<g transform="translate(84.3542, 25.2522)">
<rect x="-0.0325" y="-2.8139" width="0.0650" height="3.3139" ry="0.0325" fill="currentColor"/>
</g>
<a style="color:inherit;" xlink:href="textedit://C:/Users/jwloy/OneDrive/Documents/GitHub/string_quartet_no1-composer/lilypond_code/string_quartet_template.ly:101:2:3">
<g transform="translate(99.6455, 32.7522)">
<path transform="scale(0.0040, -0.0040)" d="M213 112c-50 0 -69 -43 -69 -88c0 -77 57 -136 134 -136c50 0 69 43 69 88c0 77 -57 136 -134 136zM491 0c0 -43 -34 -75 -72 -96c-53 -29 -114 -40 -174 -40s-120 11 -173 40c-38 21 -72 53 -72 96s34 75 72 96c53 29 113 40 173 40s121 -11 174 -40
c38 -21 72 -53 72 -96z" fill="currentColor"/>
</g>
</a>
<a style="color:inherit;" xlink:href="textedit://C:/Users/jwloy/OneDrive/Documents/GitHub/string_quartet_no1-composer/lilypond_code/string_quartet_template.ly:87:2:3">
<g transform="translate(99.6455, 23.2522)">
<path transform="scale(0.0040, -0.0040)" d="M213 112c-50 0 -69 -43 -69 -88c0 -77 57 -136 134 -136c50 0 69 43 69 88c0 77 -57 136 -134 136zM491 0c0 -43 -34 -75 -72 -96c-53 -29 -114 -40 -174 -40s-120 11 -173 40c-38 21 -72 53 -72 96s34 75 72 96c53 29 113 40 173 40s121 -11 174 -40
c38 -21 72 -53 72 -96z" fill="currentColor"/>
</g>
</a>
<a style="color:inherit;" xlink:href="textedit://C:/Users/jwloy/OneDrive/Documents/GitHub/string_quartet_no1-composer/lilypond_code/string_quartet_template.ly:73:2:3">
<g transform="translate(99.6455, 16.2522)">
<path transform="scale(0.0040, -0.0040)" d="M213 112c-50 0 -69 -43 -69 -88c0 -77 57 -136 134 -136c50 0 69 43 69 88c0 77 -57 136 -134 136zM491 0c0 -43 -34 -75 -72 -96c-53 -29 -114 -40 -174 -40s-120 11 -173 40c-38 21 -72 53 -72 96s34 75 72 96c53 29 113 40 173 40s121 -11 174 -40
c38 -21 72 -53 72 -96z" fill="currentColor"/>
</g>
</a>
<a style="color:inherit;" xlink:href="textedit://C:/Users/jwloy/OneDrive/Documents/GitHub/string_quartet_no1-composer/lilypond_code/string_quartet_template.ly:59:2:3">
<g transform="translate(99.6455, 4.7522)">
<path transform="scale(0.0040, -0.0040)" d="M213 112c-50 0 -69 -43 -69 -88c0 -77 57 -136 134 -136c50 0 69 43 69 88c0 77 -57 136 -134 136zM491 0c0 -43 -34 -75 -72 -96c-53 -29 -114 -40 -174 -40s-120 11 -173 40c-38 21 -72 53 -72 96s34 75 72 96c53 29 113 40 173 40s121 -11 174 -40
c38 -21 72 -53 72 -96z" fill="currentColor"/>
</g>
</a>
<g transform="translate(90.6363, 34.2522)">
<rect x="-0.0325" y="-1.8139" width="0.0650" height="3.3139" ry="0.0325" fill="currentColor"/>
</g>
<a style="color:inherit;" xlink:href="textedit://C:/Users/jwloy/OneDrive/Documents/GitHub/string_quartet_no1-composer/lilypond_code/string_quartet_template.ly:84:6:7">
<g transform="translate(29.2130, 24.7522)">
<path transform="scale(0.0040, -0.0040)" d="M218 136c55 0 108 -28 108 -89c0 -71 -55 -121 -102 -149c-35 -21 -75 -34 -116 -34c-55 0 -108 28 -108 89c0 71 55 121 102 149c35 21 75 34 116 34z" fill="currentColor"/>
</g>
</a>
<g transform="translate(29.2455, 25.2522)">
<rect x="-0.0325" y="-0.3139" width="0.0650" height="3.3139" ry="0.0325" fill="currentColor"/>
</g>
<g transform="translate(30.4847, 16.2522)">
<rect x="-0.0325" y="-2.0000" width="0.0650" height="3.3139" ry="0.0325" fill="currentColor"/>
</g>
<g transform="translate(29.2455, 7.2522)">
<rect x="-0.0325" y="-0.8139" width="0.0650" height="3.3139" ry="0.0325" fill="currentColor"/>
</g>
<a style="color:inherit;" xlink:href="textedit://C:/Users/jwloy/OneDrive/Documents/GitHub/string_quartet_no1-composer/lilypond_code/string_quartet_template.ly:98:5:6">
<g transform="translate(29.2130, 34.2522)">
<path transform="scale(0.0040, -0.0040)" d="M218 136c55 0 108 -28 108 -89c0 -71 -55 -121 -102 -149c-35 -21 -75 -34 -116 -34c-55 0 -108 28 -108 89c0 71 55 121 102 149c35 21 75 34 116 34z" fill="currentColor"/>
</g>
</a>
<a style="color:inherit;" xlink:href="textedit://C:/Users/jwloy/OneDrive/Documents/GitHub/string_quartet_no1-composer/lilypond_code/string_quartet_template.ly:70:6:7">
<g transform="translate(29.2130, 17.7522)">
<path transform="scale(0.0040, -0.0040)" d="M218 136c55 0 108 -28 108 -89c0 -71 -55 -121 -102 -149c-35 -21 -75 -34 -116 -34c-55 0 -108 28 -108 89c0 71 55 121 102 149c35 21 75 34 116 34z" fill="currentColor"/>
</g>
</a>
<a style="color:inherit;" xlink:href="textedit://C:/Users/jwloy/OneDrive/Documents/GitHub/string_quartet_no1-composer/lilypond_code/string_quartet_template.ly:56:7:8">
<g transform="translate(29.2130, 6.2522)">
<path transform="scale(0.0040, -0.0040)" d="M218 136c55 0 108 -28 108 -89c0 -71 -55 -121 -102 -149c-35 -21 -75 -34 -116 -34c-55 0 -108 28 -108 89c0 71 55 121 102 149c35 21 75 34 116 34z" fill="currentColor"/>
</g>
</a>
<g transform="translate(35.5276, 7.2522)">
<rect x="-0.0325" y="-1.3139" width="0.0650" height="3.3139" ry="0.0325" fill="currentColor"/>
</g>
<g transform="translate(35.5276, 25.2522)">
<rect x="-0.0325" y="-0.8139" width="0.0650" height="3.3139" ry="0.0325" fill="currentColor"/>
</g>
<g transform="translate(36.7668, 16.2522)">
<rect x="-0.0325" y="-2.5000" width="0.0650" height="3.3139" ry="0.0325" fill="currentColor"/>
</g>
<a style="color:inherit;" xlink:href="textedit://C:/Users/jwloy/OneDrive/Documents/GitHub/string_quartet_no1-composer/lilypond_code/string_quartet_template.ly:98:7:8">
<g transform="translate(35.4951, 33.7522)">
<path transform="scale(0.0040, -0.0040)" d="M218 136c55 0 108 -28 108 -89c0 -71 -55 -121 -102 -149c-35 -21 -75 -34 -116 -34c-55 0 -108 28 -108 89c0 71 55 121 102 149c35 21 75 34 116 34z" fill="currentColor"/>
</g>
</a>
<a style="color:inherit;" xlink:href="textedit://C:/Users/jwloy/OneDrive/Documents/GitHub/string_quartet_no1-composer/lilypond_code/string_quartet_template.ly:84:9:10">
<g transform="translate(35.4951, 24.2522)">
<path transform="scale(0.0040, -0.0040)" d="M218 136c55 0 108 -28 108 -89c0 -71 -55 -121 -102 -149c-35 -21 -75 -34 -116 -34c-55 0 -108 28 -108 89c0 71 55 121 102 149c35 21 75 34 116 34z" fill="currentColor"/>
</g>
</a>
<a style="color:inherit;" xlink:href="textedit://C:/Users/jwloy/OneDrive/Documents/GitHub/string_quartet_no1-composer/lilypond_code/string_quartet_template.ly:70:9:10">
<g transform="translate(35.4951, 17.2522)">
<path transform="scale(0.0040, -0.0040)" d="M218 136c55 0 108 -28 108 -89c0 -71 -55 -121 -102 -149c-35 -21 -75 -34 -116 -34c-55 0 -108 28 -108 89c0 71 55 121 102 149c35 21 75 34 116 34z" fill="currentColor"/>
</g>
</a>
<a style="color:inherit;" xlink:href="textedit://C:/Users/jwloy/OneDrive/Documents/GitHub/string_quartet_no1-composer/lilypond_code/string_quartet_template.ly:56:11:12">
<g transform="translate(35.4951, 5.7522)">
<path transform="scale(0.0040, -0.0040)" d="M218 136c55 0 108 -28 108 -89c0 -71 -55 -121 -102 -149c-35 -21 -75 -34 -116 -34c-55 0 -108 28 -108 89c0 71 55 121 102 149c35 21 75 34 116 34z" fill="currentColor"/>
</g>
</a>
<g transform="translate(29.2455, 34.2522)">
<rect x="-0.0325" y="0.1861" width="0.0650" height="3.1472" ry="0.0325" fill="currentColor"/>
</g>
<g transform="translate(13.5264, 20.7522)">
<rect x="0.0000" y="-15.5250" width="0.0500" height="31.0500" ry="0.0250" fill="currentColor"/>
</g>
<a style="color:inherit;" xlink:href="textedit://C:/Users/jwloy/OneDrive/Documents/GitHub/string_quartet_no1-composer/lilypond_code/string_quartet_template.ly:84:2:3">
<g transform="translate(22.9264, 25.2522)">
<path transform="scale(0.0040, -0.0040)" d="M218 136c55 0 108 -28 108 -89c0 -71 -55 -121 -102 -149c-35 -21 -75 -34 -116 -34c-55 0 -108 28 -108 89c0 71 55 121 102 149c35 21 75 34 116 34z" fill="currentColor"/>
</g>
</a>
<a style="color:inherit;" xlink:href="textedit://C:/Users/jwloy/OneDrive/Documents/GitHub/string_quartet_no1-composer/lilypond_code/string_quartet_template.ly:68:2:3">
<g transform="translate(19.2264, 16.2522)">
<path transform="scale(0.0040, -0.0040)" d="M359 27c-49 0 -75 42 -75 75c0 38 27 77 72 77c4 0 9 0 14 -1c-28 37 -72 59 -120 59c-106 0 -113 -73 -113 -186v-51v-51c0 -113 7 -187 113 -187c80 0 139 70 158 151c2 7 7 10 12 10c6 0 13 -4 13 -12c0 -94 -105 -174 -183 -174c-68 0 -137 21 -184 70
c-49 51 -66 122 -66 193s17 142 66 193c47 49 116 69 184 69c87 0 160 -63 175 -149c1 -5 1 -10 1 -14c0 -40 -30 -72 -67 -72z" fill="currentColor"/>
</g>
</a>
<g transform="translate(15.0264, 17.2522)">
<path transform="scale(0.0040, -0.0040)" d="M266 -635h-6c-108 0 -195 88 -195 197c0 58 53 103 112 103c54 0 95 -47 95 -103c0 -52 -43 -95 -95 -95c-11 0 -21 2 -31 6c26 -39 68 -65 117 -65h4zM461 -203c68 24 113 95 113 164c0 90 -66 179 -173 190c24 -116 46 -231 60 -354zM74 28c0 -135 129 -247 264 -247
c28 0 55 2 82 6c-14 127 -37 245 -63 364c-79 -8 -124 -61 -124 -119c0 -44 25 -91 81 -123c5 -5 7 -10 7 -15c0 -11 -10 -22 -22 -22c-3 0 -6 1 -9 2c-80 43 -117 115 -117 185c0 88 58 174 160 197c-14 58 -29 117 -46 175c-107 -121 -213 -243 -213 -403zM335 -262
c-188 0 -333 172 -333 374c0 177 131 306 248 441c-19 62 -37 125 -45 190c-6 52 -7 104 -7 156c0 115 55 224 149 292c6 5 14 5 20 0c71 -84 133 -245 133 -358c0 -143 -86 -255 -180 -364c21 -68 39 -138 56 -207c4 0 9 1 13 1c155 0 256 -128 256 -261
c0 -76 -33 -154 -107 -210c-22 -17 -47 -28 -73 -36c3 -35 5 -70 5 -105c0 -19 -1 -39 -2 -58c-7 -119 -88 -225 -202 -228l1 43c93 2 153 92 159 191c1 18 2 37 2 55c0 31 -1 61 -4 92c-29 -5 -58 -8 -89 -8zM428 916c0 55 -4 79 -20 129c-99 -48 -162 -149 -162 -259
c0 -74 18 -133 36 -194c80 97 146 198 146 324z" fill="currentColor"/>
</g>
<a style="color:inherit;" xlink:href="textedit://C:/Users/jwloy/OneDrive/Documents/GitHub/string_quartet_no1-composer/lilypond_code/string_quartet_template.ly:70:2:3">
<g transform="translate(22.9264, 18.2522)">
<path transform="scale(0.0040, -0.0040)" d="M218 136c55 0 108 -28 108 -89c0 -71 -55 -121 -102 -149c-35 -21 -75 -34 -116 -34c-55 0 -108 28 -108 89c0 71 55 121 102 149c35 21 75 34 116 34z" fill="currentColor"/>
</g>
</a>
<a style="color:inherit;" xlink:href="textedit://C:/Users/jwloy/OneDrive/Documents/GitHub/string_quartet_no1-composer/lilypond_code/string_quartet_template.ly:54:2:3">
<g transform="translate(19.2264, 7.2522)">
<path transform="scale(0.0040, -0.0040)" d="M359 27c-49 0 -75 42 -75 75c0 38 27 77 72 77c4 0 9 0 14 -1c-28 37 -72 59 -120 59c-106 0 -113 -73 -113 -186v-51v-51c0 -113 7 -187 113 -187c80 0 139 70 158 151c2 7 7 10 12 10c6 0 13 -4 13 -12c0 -94 -105 -174 -183 -174c-68 0 -137 21 -184 70
c-49 51 -66 122 -66 193s17 142 66 193c47 49 116 69 184 69c87 0 160 -63 175 -149c1 -5 1 -10 1 -14c0 -40 -30 -72 -67 -72z" fill="currentColor"/>
</g>
</a>
<g transform="translate(15.0264, 8.2522)">
<path transform="scale(0.0040, -0.0040)" d="M266 -635h-6c-108 0 -195 88 -195 197c0 58 53 103 112 103c54 0 95 -47 95 -103c0 -52 -43 -95 -95 -95c-11 0 -21 2 -31 6c26 -39 68 -65 117 -65h4zM461 -203c68 24 113 95 113 164c0 90 -66 179 -173 190c24 -116 46 -231 60 -354zM74 28c0 -135 129 -247 264 -247
c28 0 55 2 82 6c-14 127 -37 245 -63 364c-79 -8 -124 -61 -124 -119c0 -44 25 -91 81 -123c5 -5 7 -10 7 -15c0 -11 -10 -22 -22 -22c-3 0 -6 1 -9 2c-80 43 -117 115 -117 185c0 88 58 174 160 197c-14 58 -29 117 -46 175c-107 -121 -213 -243 -213 -403zM335 -262
c-188 0 -333 172 -333 374c0 177 131 306 248 441c-19 62 -37 125 -45 190c-6 52 -7 104 -7 156c0 115 55 224 149 292c6 5 14 5 20 0c71 -84 133 -245 133 -358c0 -143 -86 -255 -180 -364c21 -68 39 -138 56 -207c4 0 9 1 13 1c155 0 256 -128 256 -261
c0 -76 -33 -154 -107 -210c-22 -17 -47 -28 -73 -36c3 -35 5 -70 5 -105c0 -19 -1 -39 -2 -58c-7 -119 -88 -225 -202 -228l1 43c93 2 153 92 159 191c1 18 2 37 2 55c0 31 -1 61 -4 92c-29 -5 -58 -8 -89 -8zM428 916c0 55 -4 79 -20 129c-99 -48 -162 -149 -162 -259
c0 -74 18 -133 36 -194c80 97 146 198 146 324z" fill="currentColor"/>
</g>
<a style="color:inherit;" xlink:href="textedit://C:/Users/jwloy/OneDrive/Documents/GitHub/string_quartet_no1-composer/lilypond_code/string_quartet_template.ly:56:2:3">
<g transform="translate(22.9264, 6.7522)">
<path transform="scale(0.0040, -0.0040)" d="M218 136c55 0 108 -28 108 -89c0 -71 -55 -121 -102 -149c-35 -21 -75 -34 -116 -34c-55 0 -108 28 -108 89c0 71 55 121 102 149c35 21 75 34 116 34z" fill="currentColor"/>
</g>
</a>
<g transform="translate(14.2764, 20.7522)">
<rect x="0.0000" y="-15.5250" width="0.0500" height="31.0500" ry="0.0250" fill="currentColor"/>
</g>
<g transform="translate(15.0264, 25.2522)">
<path transform="scale(0.0040, -0.0040)" d="M318 0c0 -33 7 -73 45 -73c29 0 57 31 88 31c123 0 229 -89 229 -208c0 -169 -93 -250 -265 -250c-83 0 -152 61 -152 142c0 42 34 77 76 77s76 -35 76 -77c0 -39 -49 -37 -49 -76c0 -23 24 -38 49 -38c116 0 140 90 140 222c0 106 -12 180 -104 180
c-72 0 -119 -71 -119 -149c0 -9 -7 -14 -14 -14s-13 5 -13 14c0 76 -31 147 -84 200v-471c0 -6 -4 -10 -10 -10h-21c-6 0 -10 4 -10 10v980c0 6 4 10 10 10h21c6 0 10 -4 10 -10v-471c53 53 84 124 84 200c0 9 6 14 13 14s14 -5 14 -14c0 -78 47 -149 119 -149
c92 0 104 74 104 180c0 132 -24 222 -140 222c-25 0 -49 -15 -49 -38c0 -39 49 -37 49 -76c0 -42 -34 -77 -76 -77s-76 35 -76 77c0 81 69 142 152 142c172 0 265 -81 265 -250c0 -119 -106 -208 -229 -208c-31 0 -59 31 -88 31c-38 0 -45 -40 -45 -73zM129 -500h-119
c-6 0 -10 4 -10 10v980c0 6 4 10 10 10h119c6 0 10 -4 10 -10v-980c0 -6 -4 -10 -10 -10z" fill="currentColor"/>
</g>
<g transform="translate(13.4764, 5.0022)">
<path transform="scale(0.0040, -0.0040)" d="M0 -56v87c0 14 11 25 25 25h50c159 0 271 136 362 270c11 17 37 -1 26 -18c-99 -144 -215 -364 -388 -364h-75z" fill="currentColor"/>
</g>
<g transform="translate(13.4764, 36.5022)">
<path transform="scale(0.0040, -0.0040)" d="M0 56h75c173 0 289 -220 388 -364c11 -17 -15 -35 -26 -18c-91 134 -203 270 -362 270h-50c-14 0 -25 11 -25 25v87z" fill="currentColor"/>
</g>
<g transform="translate(13.4764, 20.7522)">
<rect x="0.0000" y="-15.5750" width="0.5000" height="31.1500" ry="0.0000" fill="currentColor"/>
</g>
<g transform="translate(6.7916, 34.9178)">
<text font-family="serif" font-size="1.9600" text-anchor="start" fill="currentColor">
<tspan>Cello</tspan>
</text>
</g>
<g transform="translate(6.7916, 25.9178)">
<text font-family="serif" font-size="1.9600" text-anchor="start" fill="currentColor">
<tspan>Viola</tspan>
</text>
</g>
<g transform="translate(5.5624, 16.9178)">
<text font-family="serif" font-size="1.9600" text-anchor="start" fill="currentColor">
<tspan>Violin II</tspan>
</text>
</g>
<g transform="translate(5.8868, 7.9178)">
<text font-family="serif" font-size="1.9600" text-anchor="start" fill="currentColor">
<tspan>Violin I</tspan>
</text>
</g>
<g transform="translate(24.1981, 16.2522)">
<rect x="-0.0325" y="-1.5000" width="0.0650" height="3.3139" ry="0.0325" fill="currentColor"/>
</g>
<g transform="translate(24.1981, 34.2522)">
<rect x="-0.0325" y="-3.0000" width="0.0650" height="3.3139" ry="0.0325" fill="currentColor"/>
</g>
<g transform="translate(22.9589, 25.2522)">
<rect x="-0.0325" y="0.1861" width="0.0650" height="3.1472" ry="0.0325" fill="currentColor"/>
</g>
<g transform="translate(22.9589, 7.2522)">
<rect x="-0.0325" y="-0.3139" width="0.0650" height="3.3139" ry="0.0325" fill="currentColor"/>
</g>
<a style="color:inherit;" xlink:href="textedit://C:/Users/jwloy/OneDrive/Documents/GitHub/string_quartet_no1-composer/lilypond_code/string_quartet_template.ly:96:2:3">
<g transform="translate(19.2264, 34.2522)">
<path transform="scale(0.0040, -0.0040)" d="M359 27c-49 0 -75 42 -75 75c0 38 27 77 72 77c4 0 9 0 14 -1c-28 37 -72 59 -120 59c-106 0 -113 -73 -113 -186v-51v-51c0 -113 7 -187 113 -187c80 0 139 70 158 151c2 7 7 10 12 10c6 0 13 -4 13 -12c0 -94 -105 -174 -183 -174c-68 0 -137 21 -184 70
c-49 51 -66 122 -66 193s17 142 66 193c47 49 116 69 184 69c87 0 160 -63 175 -149c1 -5 1 -10 1 -14c0 -40 -30 -72 -67 -72z" fill="currentColor"/>
</g>
</a>
<g transform="translate(15.0264, 33.2522)">
<path transform="scale(0.0040, -0.0040)" d="M557 -125c0 28 23 51 51 51s51 -23 51 -51s-23 -51 -51 -51s-51 23 -51 51zM557 125c0 28 23 51 51 51s51 -23 51 -51s-23 -51 -51 -51s-51 23 -51 51zM232 263c172 0 293 -88 293 -251c0 -263 -263 -414 -516 -521c-3 -3 -6 -4 -9 -4c-7 0 -13 6 -13 13c0 3 1 6 4 9
c202 118 412 265 412 493c0 120 -63 235 -171 235c-74 0 -129 -54 -154 -126c11 5 22 8 34 8c55 0 100 -45 100 -100c0 -58 -44 -106 -100 -106c-60 0 -112 47 -112 106c0 133 102 244 232 244z" fill="currentColor"/>
</g>
<a style="color:inherit;" xlink:href="textedit://C:/Users/jwloy/OneDrive/Documents/GitHub/string_quartet_no1-composer/lilypond_code/string_quartet_template.ly:98:2:3">
<g transform="translate(22.9264, 34.7522)">
<path transform="scale(0.0040, -0.0040)" d="M218 136c55 0 108 -28 108 -89c0 -71 -55 -121 -102 -149c-35 -21 -75 -34 -116 -34c-55 0 -108 28 -108 89c0 71 55 121 102 149c35 21 75 34 116 34z" fill="currentColor"/>
</g>
</a>
<a style="color:inherit;" xlink:href="textedit://C:/Users/jwloy/OneDrive/Documents/GitHub/string_quartet_no1-composer/lilypond_code/string_quartet_template.ly:82:2:3">
<g transform="translate(19.2264, 25.2522)">
<path transform="scale(0.0040, -0.0040)" d="M359 27c-49 0 -75 42 -75 75c0 38 27 77 72 77c4 0 9 0 14 -1c-28 37 -72 59 -120 59c-106 0 -113 -73 -113 -186v-51v-51c0 -113 7 -187 113 -187c80 0 139 70 158 151c2 7 7 10 12 10c6 0 13 -4 13 -12c0 -94 -105 -174 -183 -174c-68 0 -137 21 -184 70
c-49 51 -66 122 -66 193s17 142 66 193c47 49 116 69 184 69c87 0 160 -63 175 -149c1 -5 1 -10 1 -14c0 -40 -30 -72 -67 -72z" fill="currentColor"/>
</g>
</a>
<g transform="translate(50.1093, 34.2522)">
<rect x="-0.0325" y="-1.2410" width="0.0650" height="3.2410" ry="0.0325" fill="currentColor"/>
</g>
<g transform="translate(50.1093, 25.2522)">
<rect x="-0.0325" y="-1.7410" width="0.0650" height="3.2410" ry="0.0325" fill="currentColor"/>
</g>
<g transform="translate(50.1093, 16.2522)">
<rect x="-0.0325" y="0.2590" width="0.0650" height="3.0743" ry="0.0325" fill="currentColor"/>
</g>
<g transform="translate(59.9824, 7.2522)">
<rect x="-0.0325" y="-2.7410" width="0.0650" height="3.2410" ry="0.0325" fill="currentColor"/>
</g>
<g transform="translate(59.9824, 25.2522)">
<rect x="-0.0325" y="-2.2410" width="0.0650" height="3.2410" ry="0.0325" fill="currentColor"/>
</g>
<g transform="translate(59.9824, 16.2522)">
<rect x="-0.0325" y="-0.2410" width="0.0650" height="3.2410" ry="0.0325" fill="currentColor"/>
</g>
<g transform="translate(50.1093, 7.2522)">
<rect x="-0.0325" y="-2.2410" width="0.0650" height="3.2410" ry="0.0325" fill="currentColor"/>
</g>
<a style="color:inherit;" xlink:href="textedit://C:/Users/jwloy/OneDrive/Documents/GitHub/string_quartet_no1-composer/lilypond_code/string_quartet_template.ly:99:5:6">
<g transform="translate(59.9499, 32.2522)">
<path transform="scale(0.0040, -0.0040)" d="M314 65c0 24 -21 41 -42 41c-4 0 -8 0 -12 -1c-31 -9 -78 -40 -115 -64s-84 -53 -104 -78c-7 -8 -10 -18 -10 -28c0 -24 21 -41 42 -41c4 0 8 0 12 1c31 9 77 40 114 64s84 53 104 78c7 8 11 18 11 28zM262 136c46 0 82 -21 82 -71c0 -19 -4 -39 -10 -57
c-12 -37 -32 -72 -64 -94c-53 -36 -113 -50 -187 -50c-46 0 -83 21 -83 71c0 19 5 39 11 57c12 37 31 72 63 94c53 36 114 50 188 50z" fill="currentColor"/>
</g>
</a>
<a style="color:inherit;" xlink:href="textedit://C:/Users/jwloy/OneDrive/Documents/GitHub/string_quartet_no1-composer/lilypond_code/string_quartet_template.ly:85:6:7">
<g transform="translate(59.9499, 22.7522)">
<path transform="scale(0.0040, -0.0040)" d="M314 65c0 24 -21 41 -42 41c-4 0 -8 0 -12 -1c-31 -9 -78 -40 -115 -64s-84 -53 -104 -78c-7 -8 -10 -18 -10 -28c0 -24 21 -41 42 -41c4 0 8 0 12 1c31 9 77 40 114 64s84 53 104 78c7 8 11 18 11 28zM262 136c46 0 82 -21 82 -71c0 -19 -4 -39 -10 -57
c-12 -37 -32 -72 -64 -94c-53 -36 -113 -50 -187 -50c-46 0 -83 21 -83 71c0 19 5 39 11 57c12 37 31 72 63 94c53 36 114 50 188 50z" fill="currentColor"/>
</g>
</a>
<a style="color:inherit;" xlink:href="textedit://C:/Users/jwloy/OneDrive/Documents/GitHub/string_quartet_no1-composer/lilypond_code/string_quartet_template.ly:71:6:7">
<g transform="translate(59.9499, 15.7522)">
<path transform="scale(0.0040, -0.0040)" d="M314 65c0 24 -21 41 -42 41c-4 0 -8 0 -12 -1c-31 -9 -78 -40 -115 -64s-84 -53 -104 -78c-7 -8 -10 -18 -10 -28c0 -24 21 -41 42 -41c4 0 8 0 12 1c31 9 77 40 114 64s84 53 104 78c7 8 11 18 11 28zM262 136c46 0 82 -21 82 -71c0 -19 -4 -39 -10 -57
c-12 -37 -32 -72 -64 -94c-53 -36 -113 -50 -187 -50c-46 0 -83 21 -83 71c0 19 5 39 11 57c12 37 31 72 63 94c53 36 114 50 188 50z" fill="currentColor"/>
</g>
</a>
<a style="color:inherit;" xlink:href="textedit://C:/Users/jwloy/OneDrive/Documents/GitHub/string_quartet_no1-composer/lilypond_code/string_quartet_template.ly:57:7:8">
<g transform="translate(59.9499, 4.2522)">
<path transform="scale(0.0040, -0.0040)" d="M314 65c0 24 -21 41 -42 41c-4 0 -8 0 -12 -1c-31 -9 -78 -40 -115 -64s-84 -53 -104 -78c-7 -8 -10 -18 -10 -28c0 -24 21 -41 42 -41c4 0 8 0 12 1c31 9 77 40 114 64s84 53 104 78c7 8 11 18 11 28zM262 136c46 0 82 -21 82 -71c0 -19 -4 -39 -10 -57
c-12 -37 -32 -72 -64 -94c-53 -36 -113 -50 -187 -50c-46 0 -83 21 -83 71c0 19 5 39 11 57c12 37 31 72 63 94c53 36 114 50 188 50z" fill="currentColor"/>
</g>
</a>
<g transform="translate(41.8097, 25.2522)">
<rect x="-0.0325" y="-1.3139" width="0.0650" height="3.3139" ry="0.0325" fill="currentColor"/>
</g>
<a style="color:inherit;" xlink:href="textedit://C:/Users/jwloy/OneDrive/Documents/GitHub/string_quartet_no1-composer/lilypond_code/string_quartet_template.ly:99:2:3">
<g transform="translate(50.0768, 32.7522)">
<path transform="scale(0.0040, -0.0040)" d="M314 65c0 24 -21 41 -42 41c-4 0 -8 0 -12 -1c-31 -9 -78 -40 -115 -64s-84 -53 -104 -78c-7 -8 -10 -18 -10 -28c0 -24 21 -41 42 -41c4 0 8 0 12 1c31 9 77 40 114 64s84 53 104 78c7 8 11 18 11 28zM262 136c46 0 82 -21 82 -71c0 -19 -4 -39 -10 -57
c-12 -37 -32 -72 -64 -94c-53 -36 -113 -50 -187 -50c-46 0 -83 21 -83 71c0 19 5 39 11 57c12 37 31 72 63 94c53 36 114 50 188 50z" fill="currentColor"/>
</g>
</a>
<g transform="translate(43.0489, 16.2522)">
<rect x="-0.0325" y="-3.0000" width="0.0650" height="3.3139" ry="0.0325" fill="currentColor"/>
</g>
<g transform="translate(41.8097, 7.2522)">
<rect x="-0.0325" y="-1.8139" width="0.0650" height="3.3139" ry="0.0325" fill="currentColor"/>
</g>
<a style="color:inherit;" xlink:href="textedit://C:/Users/jwloy/OneDrive/Documents/GitHub/string_quartet_no1-composer/lilypond_code/string_quartet_template.ly:98:9:10">
<g transform="translate(41.7772, 33.2522)">
<path transform="scale(0.0040, -0.0040)" d="M218 136c55 0 108 -28 108 -89c0 -71 -55 -121 -102 -149c-35 -21 -75 -34 -116 -34c-55 0 -108 28 -108 89c0 71 55 121 102 149c35 21 75 34 116 34z" fill="currentColor"/>
</g>
</a>
<a style="color:inherit;" xlink:href="textedit://C:/Users/jwloy/OneDrive/Documents/GitHub/string_quartet_no1-composer/lilypond_code/string_quartet_template.ly:84:12:13">
<g transform="translate(41.7772, 23.7522)">
<path transform="scale(0.0040, -0.0040)" d="M218 136c55 0 108 -28 108 -89c0 -71 -55 -121 -102 -149c-35 -21 -75 -34 -116 -34c-55 0 -108 28 -108 89c0 71 55 121 102 149c35 21 75 34 116 34z" fill="currentColor"/>
</g>
</a>
<a style="color:inherit;" xlink:href="textedit://C:/Users/jwloy/OneDrive/Documents/GitHub/string_quartet_no1-composer/lilypond_code/string_quartet_template.ly:70:12:13">
<g transform="translate(41.7772, 16.7522)">
<path transform="scale(0.0040, -0.0040)" d="M218 136c55 0 108 -28 108 -89c0 -71 -55 -121 -102 -149c-35 -21 -75 -34 -116 -34c-55 0 -108 28 -108 89c0 71 55 121 102 149c35 21 75 34 116 34z" fill="currentColor"/>
</g>
</a>
<a style="color:inherit;" xlink:href="textedit://C:/Users/jwloy/OneDrive/Documents/GitHub/string_quartet_no1-composer/lilypond_code/string_quartet_template.ly:56:15:16">
<g transform="translate(41.7772, 5.2522)">
<path transform="scale(0.0040, -0.0040)" d="M218 136c55 0 108 -28 108 -89c0 -71 -55 -121 -102 -149c-35 -21 -75 -34 -116 -34c-55 0 -108 28 -108 89c0 71 55 121 102 149c35 21 75 34 116 34z" fill="currentColor"/>
</g>
</a>
<g transform="translate(35.5276, 34.2522)">
<rect x="-0.0325" y="-0.3139" width="0.0650" height="3.3139" ry="0.0325" fill="currentColor"/>
</g>
<a style="color:inherit;" xlink:href="textedit://C:/Users/jwloy/OneDrive/Documents/GitHub/string_quartet_no1-composer/lilypond_code/string_quartet_template.ly:71:2:3">
<g transform="translate(50.0768, 16.2522)">
<path transform="scale(0.0040, -0.0040)" d="M314 65c0 24 -21 41 -42 41c-4 0 -8 0 -12 -1c-31 -9 -78 -40 -115 -64s-84 -53 -104 -78c-7 -8 -10 -18 -10 -28c0 -24 21 -41 42 -41c4 0 8 0 12 1c31 9 77 40 114 64s84 53 104 78c7 8 11 18 11 28zM262 136c46 0 82 -21 82 -71c0 -19 -4 -39 -10 -57
c-12 -37 -32 -72 -64 -94c-53 -36 -113 -50 -187 -50c-46 0 -83 21 -83 71c0 19 5 39 11 57c12 37 31 72 63 94c53 36 114 50 188 50z" fill="currentColor"/>
</g>
</a>
<a style="color:inherit;" xlink:href="textedit://C:/Users/jwloy/OneDrive/Documents/GitHub/string_quartet_no1-composer/lilypond_code/string_quartet_template.ly:57:2:3">
<g transform="translate(50.0768, 4.7522)">
<path transform="scale(0.0040, -0.0040)" d="M314 65c0 24 -21 41 -42 41c-4 0 -8 0 -12 -1c-31 -9 -78 -40 -115 -64s-84 -53 -104 -78c-7 -8 -10 -18 -10 -28c0 -24 21 -41 42 -41c4 0 8 0 12 1c31 9 77 40 114 64s84 53 104 78c7 8 11 18 11 28zM262 136c46 0 82 -21 82 -71c0 -19 -4 -39 -10 -57
c-12 -37 -32 -72 -64 -94c-53 -36 -113 -50 -187 -50c-46 0 -83 21 -83 71c0 19 5 39 11 57c12 37 31 72 63 94c53 36 114 50 188 50z" fill="currentColor"/>
</g>
</a>
<a style="color:inherit;" xlink:href="textedit://C:/Users/jwloy/OneDrive/Documents/GitHub/string_quartet_no1-composer/lilypond_code/string_quartet_template.ly:85:2:3">
<g transform="translate(50.0768, 23.2522)">
<path transform="scale(0.0040, -0.0040)" d="M314 65c0 24 -21 41 -42 41c-4 0 -8 0 -12 -1c-31 -9 -78 -40 -115 -64s-84 -53 -104 -78c-7 -8 -10 -18 -10 -28c0 -24 21 -41 42 -41c4 0 8 0 12 1c31 9 77 40 114 64s84 53 104 78c7 8 11 18 11 28zM262 136c46 0 82 -21 82 -71c0 -19 -4 -39 -10 -57
c-12 -37 -32 -72 -64 -94c-53 -36 -113 -50 -187 -50c-46 0 -83 21 -83 71c0 19 5 39 11 57c12 37 31 72 63 94c53 36 114 50 188 50z" fill="currentColor"/>
</g>
</a>
<g transform="translate(41.8097, 34.2522)">
<rect x="-0.0325" y="-0.8139" width="0.0650" height="3.3139" ry="0.0325" fill="currentColor"/>
</g>
</svg>
