<?xml version="1.0" encoding="UTF-8" standalone="no"?>
<svg
   version="1.2"
   width="10.949181mm"
   height="19.908596mm"
   viewBox="0 0 6.23069 11.32909"
   id="svg22"
   sodipodi:docname="two handed pizz_b.svg"
   inkscape:version="1.4.3 (0d15f75, 2025-12-25)"
   xmlns:inkscape="http://www.inkscape.org/namespaces/inkscape"
   xmlns:sodipodi="http://sodipodi.sourceforge.net/DTD/sodipodi-0.dtd"
   xmlns="http://www.w3.org/2000/svg"
   xmlns:svg="http://www.w3.org/2000/svg">
  <defs
     id="defs22" />
  <sodipodi:namedview
     id="namedview22"
     pagecolor="#ffffff"
     bordercolor="#000000"
     borderopacity="0.25"
     inkscape:showpageshadow="2"
     inkscape:pageopacity="0.0"
     inkscape:pagecheckerboard="0"
     inkscape:deskcolor="#d1d1d1"
     inkscape:document-units="mm"
     inkscape:zoom="13.254858"
     inkscape:cx="53.338934"
     inkscape:cy="38.061517"
     inkscape:window-width="3440"
     inkscape:window-height="1346"
     inkscape:window-x="-11"
     inkscape:window-y="-11"
     inkscape:window-maximized="1"
     inkscape:current-layer="svg22"
     showguides="true">
    <sodipodi:guide
       position="0.26971963,8.6748042"
       orientation="1,0"
       id="guide22"
       inkscape:locked="false" />
  </sodipodi:namedview>
  <style
     type="text/css"
     id="style1"><![CDATA[
tspan { white-space: pre; }
]]></style>
  <g
     id="g25">
    <g
       id="g24"
       transform="matrix(0.55845031,0,0,0.55845031,0.1405699,1.3190757)">
      <g
         transform="translate(6.7183559,8.090984)"
         id="g1">
        <path
           transform="scale(0.0028,-0.0028)"
           d="m 208,139 c 61,0 117,-33 117,-99 0,-71 -52,-119 -99,-147 -34,-20 -71,-32 -110,-32 -61,0 -116,33 -116,99 0,71 51,119 98,147 34,20 71,32 110,32 z"
           fill="currentColor"
           id="path1" />
      </g>
      <rect
         x="7.506156"
         y="3.5909841"
         width="0.13"
         height="4.3856001"
         ry="0.039999999"
         fill="currentColor"
         id="rect1" />
      <rect
         x="6.7183561"
         y="10.205384"
         width="0.13"
         height="4.4889998"
         ry="0.039999999"
         fill="currentColor"
         id="rect2" />
      <g
         transform="translate(6.7183559,10.090984)"
         id="g4">
        <path
           transform="scale(0.0028,-0.0028)"
           d="m 208,139 c 61,0 117,-33 117,-99 0,-71 -52,-119 -99,-147 -34,-20 -71,-32 -110,-32 -61,0 -116,33 -116,99 0,71 51,119 98,147 34,20 71,32 110,32 z"
           fill="currentColor"
           id="path3" />
      </g>
      <rect
         x="4.946156"
         y="3.5909841"
         width="0.13"
         height="2.3856001"
         ry="0.039999999"
         fill="currentColor"
         id="rect4" />
      <g
         transform="translate(2.3861559,3.590984)"
         id="g6">
        <polygon
           stroke-linejoin="round"
           stroke-linecap="round"
           stroke-width="0.08"
           fill="currentColor"
           stroke="currentColor"
           points="0.04,0.152 0.04,-0.152 8.0821,-0.152 8.0821,0.152 "
           id="polygon5" />
      </g>
      <g
         transform="translate(2.3861559,4.2389839)"
         id="g7">
        <polygon
           stroke-linejoin="round"
           stroke-linecap="round"
           stroke-width="0.08"
           fill="currentColor"
           stroke="currentColor"
           points="0.04,0.152 0.04,-0.152 8.0821,-0.152 8.0821,0.152 "
           id="polygon6" />
      </g>
      <g
         transform="translate(2.3861559,4.8869839)"
         id="g8">
        <polygon
           stroke-linejoin="round"
           stroke-linecap="round"
           stroke-width="0.08"
           fill="currentColor"
           stroke="currentColor"
           points="0.04,0.152 0.04,-0.152 8.0821,-0.152 8.0821,0.152 "
           id="polygon7" />
      </g>
      <g
         transform="translate(0.3183559,13.652984)"
         id="g9">
        <polygon
           stroke-linejoin="round"
           stroke-linecap="round"
           stroke-width="0.08"
           fill="currentColor"
           stroke="currentColor"
           points="0.04,0.152 0.04,-0.152 9.05,-0.51 9.05,-0.206 "
           id="polygon8" />
      </g>
      <g
         transform="translate(0.3183559,14.300984)"
         id="g10">
        <polygon
           stroke-linejoin="round"
           stroke-linecap="round"
           stroke-width="0.08"
           fill="currentColor"
           stroke="currentColor"
           points="0.04,0.152 0.04,-0.152 9.05,-0.51 9.05,-0.206 "
           id="polygon9" />
      </g>
      <g
         transform="translate(0.3183559,14.948984)"
         id="g11">
        <polygon
           stroke-linejoin="round"
           stroke-linecap="round"
           stroke-width="0.08"
           fill="currentColor"
           stroke="currentColor"
           points="0.04,0.152 0.04,-0.152 9.05,-0.51 9.05,-0.206 "
           id="polygon10" />
      </g>
      <rect
         x="10.378256"
         y="3.5909841"
         width="0.13"
         height="10.3856"
         ry="0.039999999"
         fill="currentColor"
         id="rect11" />
      <rect
         x="9.2783556"
         y="11.205384"
         width="0.13"
         height="3.3880999"
         ry="0.039999999"
         fill="currentColor"
         id="rect12" />
      <g
         transform="translate(9.5903559,14.090984)"
         id="g14">
        <path
           transform="scale(0.0028,-0.0028)"
           d="m 208,139 c 61,0 117,-33 117,-99 0,-71 -52,-119 -99,-147 -34,-20 -71,-32 -110,-32 -61,0 -116,33 -116,99 0,71 51,119 98,147 34,20 71,32 110,32 z"
           fill="currentColor"
           id="path13" />
      </g>
      <g
         transform="translate(9.2783559,11.090984)"
         id="g15">
        <path
           transform="scale(0.0028,-0.0028)"
           d="m 208,139 c 61,0 117,-33 117,-99 0,-71 -52,-119 -99,-147 -34,-20 -71,-32 -110,-32 -61,0 -116,33 -116,99 0,71 51,119 98,147 34,20 71,32 110,32 z"
           fill="currentColor"
           id="path14" />
      </g>
      <rect
         x="0.31835586"
         y="11.705384"
         width="0.13"
         height="3.2409999"
         ry="0.039999999"
         fill="currentColor"
         id="rect15" />
      <g
         transform="translate(0.3183559,11.590984)"
         id="g17">
        <path
           transform="scale(0.0028,-0.0028)"
           d="m 208,139 c 61,0 117,-33 117,-99 0,-71 -52,-119 -99,-147 -34,-20 -71,-32 -110,-32 -61,0 -116,33 -116,99 0,71 51,119 98,147 34,20 71,32 110,32 z"
           fill="currentColor"
           id="path16" />
      </g>
      <g
         transform="translate(1.5983559,12.590984)"
         id="g18">
        <path
           transform="scale(0.0028,-0.0028)"
           d="m 208,139 c 61,0 117,-33 117,-99 0,-71 -52,-119 -99,-147 -34,-20 -71,-32 -110,-32 -61,0 -116,33 -116,99 0,71 51,119 98,147 34,20 71,32 110,32 z"
           fill="currentColor"
           id="path17" />
      </g>
      <rect
         x="2.3861558"
         y="3.5909841"
         width="0.13"
         height="8.8856001"
         ry="0.039999999"
         fill="currentColor"
         id="rect18" />
      <rect
         x="4.1583557"
         y="10.705384"
         width="0.13"
         height="4.0897999"
         ry="0.039999999"
         fill="currentColor"
         id="rect19" />
      <g
         transform="translate(4.1583559,6.0909839)"
         id="g21">
        <path
           transform="scale(0.0028,-0.0028)"
           d="m 208,139 c 61,0 117,-33 117,-99 0,-71 -52,-119 -99,-147 -34,-20 -71,-32 -110,-32 -61,0 -116,33 -116,99 0,71 51,119 98,147 34,20 71,32 110,32 z"
           fill="currentColor"
           id="path20" />
      </g>
      <g
         transform="translate(4.1583559,10.590984)"
         id="g22">
        <path
           transform="scale(0.0028,-0.0028)"
           d="m 208,139 c 61,0 117,-33 117,-99 0,-71 -52,-119 -99,-147 -34,-20 -71,-32 -110,-32 -61,0 -116,33 -116,99 0,71 51,119 98,147 34,20 71,32 110,32 z"
           fill="currentColor"
           id="path21" />
      </g>
    </g>
    <text
       font-family="'Crimson Pro Light'"
       font-style="italic"
       font-size="1.7461px"
       text-anchor="start"
       fill="currentColor"
       id="text2"
       x="0.25956732"
       y="2.9328792"><tspan
         id="tspan2"
         style="font-style:normal;font-variant:normal;font-weight:300;font-stretch:normal;font-family:'Crimson Pro';-inkscape-font-specification:'Crimson Pro Light'">L.H.</tspan></text>
    <text
       font-family="'Crimson Pro Light'"
       font-style="italic"
       font-size="1.7461px"
       text-anchor="start"
       fill="currentColor"
       id="text22"
       x="0.22073613"
       y="10.972918"><tspan
         id="tspan22"
         style="font-style:normal;font-variant:normal;font-weight:300;font-stretch:normal;font-family:'Crimson Pro';-inkscape-font-specification:'Crimson Pro Light'">R.H.</tspan></text>
    <text
       font-family="'Crimson Pro Light'"
       font-style="italic"
       font-size="1.7461px"
       text-anchor="start"
       fill="currentColor"
       id="text23"
       x="0.36747828"
       y="1.3198948"><tspan
         id="tspan23"
         style="font-style:italic;font-variant:normal;font-weight:300;font-stretch:normal;font-family:'Crimson Pro';-inkscape-font-specification:'Crimson Pro Light Italic'">pizz</tspan></text>
    <rect
       style="fill:none;stroke:#000000;stroke-width:0.0181427"
       id="rect23"
       width="6.2125463"
       height="11.310949"
       x="0.0090713501"
       y="0.0090713501" />
  </g>
</svg>
