<svg xmlns="http://www.w3.org/2000/svg" xmlns:xlink="http://www.w3.org/1999/xlink" version="1.2" width="130.00mm" height="500.00mm" viewBox="0.0000 -0.0000 73.9772 284.5276">
<style type="text/css">
<![CDATA[
tspan { white-space: pre; }
]]>
</style>
<a style="color:inherit;" xlink:href="textedit://C:/Users/jwloy/OneDrive/Documents/GitHub/string_quartet_no1-composer/lilypond_code/two%20handed%20pizz.ly:100:31:32">
<g transform="translate(8.5691, 8.5373)">
<path transform="scale(0.0028, -0.0028)" d="M208 139c61 0 117 -33 117 -99c0 -71 -52 -119 -99 -147c-34 -20 -71 -32 -110 -32c-61 0 -116 33 -116 99c0 71 51 119 98 147c34 20 71 32 110 32z" fill="currentColor"/>
</g>
</a>
<g transform="translate(9.4219, 12.5373)">
<rect x="-0.0650" y="-8.5000" width="0.1300" height="4.3856" ry="0.0400" fill="currentColor"/>
</g>
<g transform="translate(8.6341, 12.5373)">
<rect x="-0.0650" y="-1.8856" width="0.1300" height="4.4890" ry="0.0400" fill="currentColor"/>
</g>
<a style="color:inherit;" xlink:href="textedit://C:/Users/jwloy/OneDrive/Documents/GitHub/string_quartet_no1-composer/lilypond_code/two%20handed%20pizz.ly:90:32:33">
<g transform="translate(8.5691, 10.5373)">
<path transform="scale(0.0028, -0.0028)" d="M208 139c61 0 117 -33 117 -99c0 -71 -52 -119 -99 -147c-34 -20 -71 -32 -110 -32c-61 0 -116 33 -116 99c0 71 51 119 98 147c34 20 71 32 110 32z" fill="currentColor"/>
</g>
</a>
<g transform="translate(6.8619, 12.5373)">
<rect x="-0.0650" y="-8.5000" width="0.1300" height="2.3856" ry="0.0400" fill="currentColor"/>
</g>
<a style="color:inherit;" xlink:href="textedit://C:/Users/jwloy/OneDrive/Documents/GitHub/string_quartet_no1-composer/lilypond_code/two%20handed%20pizz.ly:100:15:16">
<g transform="translate(4.2369, 4.0373)">
<polygon stroke-linejoin="round" stroke-linecap="round" stroke-width="0.0800" fill="currentColor" stroke="currentColor" points="8.0821 -0.1520 8.0821 0.1520 0.0400 0.1520 0.0400 -0.1520"/>
</g>
<g transform="translate(4.2369, 4.6853)">
<polygon stroke-linejoin="round" stroke-linecap="round" stroke-width="0.0800" fill="currentColor" stroke="currentColor" points="8.0821 -0.1520 8.0821 0.1520 0.0400 0.1520 0.0400 -0.1520"/>
</g>
<g transform="translate(4.2369, 5.3333)">
<polygon stroke-linejoin="round" stroke-linecap="round" stroke-width="0.0800" fill="currentColor" stroke="currentColor" points="8.0821 -0.1520 8.0821 0.1520 0.0400 0.1520 0.0400 -0.1520"/>
</g>
</a>
<a style="color:inherit;" xlink:href="textedit://C:/Users/jwloy/OneDrive/Documents/GitHub/string_quartet_no1-composer/lilypond_code/two%20handed%20pizz.ly:90:12:13">
<g transform="translate(2.1691, 14.0993)">
<polygon stroke-linejoin="round" stroke-linecap="round" stroke-width="0.0800" fill="currentColor" stroke="currentColor" points="9.0500 -0.5100 9.0500 -0.2060 0.0400 0.1520 0.0400 -0.1520"/>
</g>
<g transform="translate(2.1691, 14.7473)">
<polygon stroke-linejoin="round" stroke-linecap="round" stroke-width="0.0800" fill="currentColor" stroke="currentColor" points="9.0500 -0.5100 9.0500 -0.2060 0.0400 0.1520 0.0400 -0.1520"/>
</g>
<g transform="translate(2.1691, 15.3953)">
<polygon stroke-linejoin="round" stroke-linecap="round" stroke-width="0.0800" fill="currentColor" stroke="currentColor" points="9.0500 -0.5100 9.0500 -0.2060 0.0400 0.1520 0.0400 -0.1520"/>
</g>
</a>
<g transform="translate(12.2940, 12.5373)">
<rect x="-0.0650" y="-8.5000" width="0.1300" height="10.3856" ry="0.0400" fill="currentColor"/>
</g>
<g transform="translate(11.1941, 12.5373)">
<rect x="-0.0650" y="-0.8856" width="0.1300" height="3.3881" ry="0.0400" fill="currentColor"/>
</g>
<a style="color:inherit;" xlink:href="textedit://C:/Users/jwloy/OneDrive/Documents/GitHub/string_quartet_no1-composer/lilypond_code/two%20handed%20pizz.ly:100:41:42">
<g transform="translate(11.4411, 14.5373)">
<path transform="scale(0.0028, -0.0028)" d="M208 139c61 0 117 -33 117 -99c0 -71 -52 -119 -99 -147c-34 -20 -71 -32 -110 -32c-61 0 -116 33 -116 99c0 71 51 119 98 147c34 20 71 32 110 32z" fill="currentColor"/>
</g>
</a>
<a style="color:inherit;" xlink:href="textedit://C:/Users/jwloy/OneDrive/Documents/GitHub/string_quartet_no1-composer/lilypond_code/two%20handed%20pizz.ly:90:41:42">
<g transform="translate(11.1291, 11.5373)">
<path transform="scale(0.0028, -0.0028)" d="M208 139c61 0 117 -33 117 -99c0 -71 -52 -119 -99 -147c-34 -20 -71 -32 -110 -32c-61 0 -116 33 -116 99c0 71 51 119 98 147c34 20 71 32 110 32z" fill="currentColor"/>
</g>
</a>
<g transform="translate(2.2341, 12.5373)">
<rect x="-0.0650" y="-0.3856" width="0.1300" height="3.2410" ry="0.0400" fill="currentColor"/>
</g>
<a style="color:inherit;" xlink:href="textedit://C:/Users/jwloy/OneDrive/Documents/GitHub/string_quartet_no1-composer/lilypond_code/two%20handed%20pizz.ly:90:8:9">
<g transform="translate(2.1691, 12.0373)">
<path transform="scale(0.0028, -0.0028)" d="M208 139c61 0 117 -33 117 -99c0 -71 -52 -119 -99 -147c-34 -20 -71 -32 -110 -32c-61 0 -116 33 -116 99c0 71 51 119 98 147c34 20 71 32 110 32z" fill="currentColor"/>
</g>
</a>
<a style="color:inherit;" xlink:href="textedit://C:/Users/jwloy/OneDrive/Documents/GitHub/string_quartet_no1-composer/lilypond_code/two%20handed%20pizz.ly:100:12:13">
<g transform="translate(3.4491, 13.0373)">
<path transform="scale(0.0028, -0.0028)" d="M208 139c61 0 117 -33 117 -99c0 -71 -52 -119 -99 -147c-34 -20 -71 -32 -110 -32c-61 0 -116 33 -116 99c0 71 51 119 98 147c34 20 71 32 110 32z" fill="currentColor"/>
</g>
</a>
<g transform="translate(4.3019, 12.5373)">
<rect x="-0.0650" y="-8.5000" width="0.1300" height="8.8856" ry="0.0400" fill="currentColor"/>
</g>
<g transform="translate(6.0741, 12.5373)">
<rect x="-0.0650" y="-1.3856" width="0.1300" height="4.0898" ry="0.0400" fill="currentColor"/>
</g>
<a style="color:inherit;" xlink:href="textedit://C:/Users/jwloy/OneDrive/Documents/GitHub/string_quartet_no1-composer/lilypond_code/two%20handed%20pizz.ly:100:21:22">
<g transform="translate(6.0091, 6.5373)">
<path transform="scale(0.0028, -0.0028)" d="M208 139c61 0 117 -33 117 -99c0 -71 -52 -119 -99 -147c-34 -20 -71 -32 -110 -32c-61 0 -116 33 -116 99c0 71 51 119 98 147c34 20 71 32 110 32z" fill="currentColor"/>
</g>
</a>
<a style="color:inherit;" xlink:href="textedit://C:/Users/jwloy/OneDrive/Documents/GitHub/string_quartet_no1-composer/lilypond_code/two%20handed%20pizz.ly:90:23:24">
<g transform="translate(6.0091, 11.0373)">
<path transform="scale(0.0028, -0.0028)" d="M208 139c61 0 117 -33 117 -99c0 -71 -52 -119 -99 -147c-34 -20 -71 -32 -110 -32c-61 0 -116 33 -116 99c0 71 51 119 98 147c34 20 71 32 110 32z" fill="currentColor"/>
</g>
</a>
</svg>
