<svg xmlns="http://www.w3.org/2000/svg" xmlns:xlink="http://www.w3.org/1999/xlink" version="1.2" width="30.27mm" height="297.00mm" viewBox="0.0000 -0.0000 17.2261 169.0094">
<style type="text/css">
<![CDATA[
tspan { white-space: pre; }
]]>
</style>
<g transform="translate(5.6906, 5.0250)">
<line stroke-linejoin="round" stroke-linecap="round" stroke-width="0.0500" stroke="currentColor" x1="0.0250" y1="0" x2="5.0950" y2="0"/>
</g>
<g transform="translate(5.6906, 4.0250)">
<line stroke-linejoin="round" stroke-linecap="round" stroke-width="0.0500" stroke="currentColor" x1="0.0250" y1="0" x2="5.0950" y2="0"/>
</g>
<g transform="translate(5.6906, 3.0250)">
<line stroke-linejoin="round" stroke-linecap="round" stroke-width="0.0500" stroke="currentColor" x1="0.0250" y1="0" x2="5.0950" y2="0"/>
</g>
<g transform="translate(5.6906, 2.0250)">
<line stroke-linejoin="round" stroke-linecap="round" stroke-width="0.0500" stroke="currentColor" x1="0.0250" y1="0" x2="5.0950" y2="0"/>
</g>
<g transform="translate(5.6906, 1.0250)">
<line stroke-linejoin="round" stroke-linecap="round" stroke-width="0.0500" stroke="currentColor" x1="0.0250" y1="0" x2="5.0950" y2="0"/>
</g>
<g transform="translate(6.4906, 4.0250)">
<path transform="scale(0.0025, -0.0025)" d="M335 -267c-189 0 -333 175 -333 379c0 176 126 308 239 444c-22 62 -42 124 -51 189c-7 53 -9 106 -9 160c0 112 54 218 145 284c5 3 11 5 16 5c6 0 11 -2 16 -6c73 -82 137 -243 137 -356c0 -141 -80 -253 -170 -362c22 -67 41 -135 58 -203h7c158 0 259 -130 259 -265
c0 -77 -33 -156 -108 -213c-22 -16 -46 -28 -71 -36c2 -31 4 -63 4 -94c0 -22 -1 -44 -2 -66c-7 -123 -93 -231 -214 -231c-109 0 -197 88 -197 197c0 58 53 104 112 104c54 0 95 -48 95 -104c0 -52 -43 -95 -95 -95c-7 0 -13 1 -20 3c25 -34 64 -56 108 -56
c94 0 155 91 161 189c1 20 2 41 2 61c0 27 -1 53 -3 80c-28 -5 -56 -8 -86 -8zM466 -199c63 25 105 94 105 158c0 85 -61 169 -159 185c23 -112 42 -223 54 -343zM338 -217c27 0 54 2 80 6c-12 125 -32 241 -57 357c-78 -7 -123 -59 -123 -116c0 -42 25 -87 78 -118
c6 -5 8 -12 8 -18c0 -13 -11 -25 -25 -25c-3 0 -7 0 -11 2c-82 44 -119 116 -119 188c0 91 60 180 165 203c-14 55 -30 109 -47 163c-103 -123 -206 -246 -206 -405c0 -130 126 -237 257 -237zM236 781c0 -67 24 -125 43 -179c76 97 138 199 138 322c0 46 -4 65 -19 106
c-99 -44 -162 -141 -162 -249z" fill="currentColor"/>
</g>
<g transform="translate(4.9406, 0.7750)">
<path transform="scale(0.0040, -0.0040)" d="M0 -56v87c0 14 11 25 25 25h50c159 0 271 136 362 270c11 17 37 -1 26 -18c-99 -144 -215 -364 -388 -364h-75z" fill="currentColor"/>
</g>
<g transform="translate(4.9406, 5.2750)">
<path transform="scale(0.0040, -0.0040)" d="M0 56h75c173 0 289 -220 388 -364c11 -17 -15 -35 -26 -18c-91 134 -203 270 -362 270h-50c-14 0 -25 11 -25 25v87z" fill="currentColor"/>
</g>
<g transform="translate(4.9406, 3.0250)">
<rect x="0.0000" y="-2.0700" width="0.4500" height="4.1400" ry="0.0000" fill="currentColor"/>
</g>
</svg>
